<?xml version="1.0" encoding="utf-8"?>
<!-- Generator: Adobe Illustrator 22.0.1, SVG Export Plug-In . SVG Version: 6.00 Build 0)  -->
<svg version="1.1" id="Badges" xmlns="http://www.w3.org/2000/svg" xmlns:xlink="http://www.w3.org/1999/xlink" x="0px" y="0px"
	 viewBox="42.4 17.2 262.2 43.6" enable-background="new 42.4 17.2 262.2 43.6" xml:space="preserve">
<g>
	<g>
		<path d="M168.2,59h-120c-2.2,0-4-1.8-4-4V23c0-2.2,1.8-4,4-4h120c2.2,0,4,1.8,4,4v32C172.2,57.2,170.4,59,168.2,59z"/>
		<path fill="#FFFFFF" d="M71.2,38.8c0-3.1,2.6-4.6,2.7-4.7c-1.5-2.1-3.7-2.4-4.5-2.5c-1.9-0.2-3.8,1.1-4.7,1.1
			c-1,0-2.5-1.1-4.1-1.1c-2.1,0-4,1.2-5.1,3.1c-2.2,3.8-0.6,9.4,1.5,12.5c1.1,1.5,2.3,3.2,3.9,3.1c1.6-0.1,2.2-1,4.1-1
			c1.9,0,2.4,1,4.1,1c1.7,0,2.8-1.5,3.8-3c1.2-1.7,1.7-3.4,1.7-3.5C74.5,43.7,71.2,42.5,71.2,38.8z"/>
		<path fill="#FFFFFF" d="M68.1,29.6c0.8-1.1,1.4-2.5,1.3-4c-1.2,0.1-2.8,0.8-3.6,1.9c-0.8,0.9-1.5,2.4-1.3,3.8
			C65.8,31.4,67.2,30.6,68.1,29.6z"/>
		<path fill="#FFFFFF" d="M94,50.1h-2.2l-1.2-3.8h-4.2l-1.1,3.8h-2.1l4.2-12.9h2.6L94,50.1z M90.2,44.7l-1.1-3.4
			c-0.1-0.3-0.3-1.2-0.7-2.4h0c-0.1,0.5-0.3,1.4-0.6,2.4l-1.1,3.4H90.2z"/>
		<path fill="#FFFFFF" d="M104.7,45.4c0,1.6-0.4,2.8-1.3,3.8c-0.8,0.8-1.7,1.2-2.9,1.2c-1.2,0-2.1-0.4-2.6-1.3h0v4.9h-2.1v-10
			c0-1,0-2-0.1-3.1h1.8l0.1,1.5h0c0.7-1.1,1.7-1.7,3.1-1.7c1.1,0,2,0.4,2.7,1.3C104.3,42.8,104.7,43.9,104.7,45.4z M102.6,45.4
			c0-0.9-0.2-1.7-0.6-2.2c-0.4-0.6-1-0.9-1.8-0.9c-0.5,0-1,0.2-1.4,0.5c-0.4,0.3-0.7,0.8-0.8,1.3c-0.1,0.3-0.1,0.5-0.1,0.6v1.6
			c0,0.7,0.2,1.2,0.6,1.7c0.4,0.5,1,0.7,1.6,0.7c0.8,0,1.4-0.3,1.8-0.9C102.4,47.2,102.6,46.4,102.6,45.4z"/>
		<path fill="#FFFFFF" d="M115.4,45.4c0,1.6-0.4,2.8-1.3,3.8c-0.8,0.8-1.7,1.2-2.9,1.2c-1.2,0-2.1-0.4-2.6-1.3h0v4.9h-2.1v-10
			c0-1,0-2-0.1-3.1h1.8l0.1,1.5h0c0.7-1.1,1.7-1.7,3.1-1.7c1.1,0,2,0.4,2.7,1.3C115,42.8,115.4,43.9,115.4,45.4z M113.3,45.4
			c0-0.9-0.2-1.7-0.6-2.2c-0.4-0.6-1-0.9-1.8-0.9c-0.5,0-1,0.2-1.4,0.5c-0.4,0.3-0.7,0.8-0.8,1.3c-0.1,0.3-0.1,0.5-0.1,0.6v1.6
			c0,0.7,0.2,1.2,0.6,1.7c0.4,0.5,1,0.7,1.6,0.7c0.8,0,1.4-0.3,1.8-0.9C113.1,47.2,113.3,46.4,113.3,45.4z"/>
		<path fill="#FFFFFF" d="M127.4,46.5c0,1.1-0.4,2-1.1,2.7c-0.8,0.8-2,1.1-3.5,1.1c-1.4,0-2.5-0.3-3.3-0.8l0.5-1.7
			c0.9,0.5,1.9,0.8,3,0.8c0.8,0,1.4-0.2,1.8-0.5c0.4-0.4,0.6-0.8,0.6-1.4c0-0.5-0.2-1-0.5-1.3c-0.4-0.4-1-0.7-1.8-1
			c-2.3-0.8-3.4-2.1-3.4-3.7c0-1.1,0.4-1.9,1.2-2.6c0.8-0.7,1.8-1,3.2-1c1.2,0,2.1,0.2,2.9,0.6l-0.5,1.7c-0.7-0.4-1.5-0.6-2.5-0.6
			c-0.7,0-1.3,0.2-1.7,0.5c-0.3,0.3-0.5,0.7-0.5,1.2c0,0.5,0.2,0.9,0.6,1.3c0.3,0.3,1,0.6,1.9,1c1.1,0.4,1.9,1,2.5,1.6
			C127.1,44.9,127.4,45.6,127.4,46.5z"/>
		<path fill="#FFFFFF" d="M134.2,42.4h-2.3v4.5c0,1.1,0.4,1.7,1.2,1.7c0.4,0,0.7,0,0.9-0.1l0.1,1.6c-0.4,0.2-0.9,0.2-1.6,0.2
			c-0.8,0-1.5-0.2-1.9-0.7c-0.5-0.5-0.7-1.3-0.7-2.5v-4.7h-1.4v-1.6h1.4v-1.7l2-0.6v2.3h2.3V42.4z"/>
		<path fill="#FFFFFF" d="M144.5,45.4c0,1.4-0.4,2.6-1.2,3.5c-0.9,0.9-2,1.4-3.4,1.4c-1.4,0-2.5-0.5-3.3-1.4c-0.8-0.9-1.2-2-1.2-3.4
			c0-1.4,0.4-2.6,1.3-3.5c0.8-0.9,2-1.4,3.4-1.4c1.4,0,2.5,0.5,3.3,1.4C144.1,42.9,144.5,44,144.5,45.4z M142.3,45.5
			c0-0.9-0.2-1.6-0.6-2.2c-0.4-0.7-1.1-1.1-1.9-1.1c-0.8,0-1.5,0.4-1.9,1.1c-0.4,0.6-0.6,1.4-0.6,2.2c0,0.9,0.2,1.6,0.6,2.2
			c0.4,0.7,1.1,1.1,1.9,1.1c0.8,0,1.4-0.4,1.9-1.1C142.1,47.1,142.3,46.3,142.3,45.5z"/>
		<path fill="#FFFFFF" d="M151.2,42.6c-0.2,0-0.4-0.1-0.7-0.1c-0.7,0-1.3,0.3-1.7,0.8c-0.3,0.5-0.5,1.1-0.5,1.8v4.9h-2.1l0-6.4
			c0-1.1,0-2-0.1-2.9h1.8l0.1,1.8h0.1c0.2-0.6,0.6-1.1,1-1.5c0.5-0.3,1-0.5,1.5-0.5c0.2,0,0.4,0,0.5,0V42.6z"/>
		<path fill="#FFFFFF" d="M160.4,45c0,0.4,0,0.7-0.1,0.9h-6.2c0,0.9,0.3,1.6,0.9,2.1c0.5,0.4,1.2,0.7,2,0.7c0.9,0,1.8-0.1,2.5-0.4
			l0.3,1.4c-0.9,0.4-1.9,0.6-3.1,0.6c-1.4,0-2.6-0.4-3.4-1.3c-0.8-0.8-1.2-2-1.2-3.4c0-1.4,0.4-2.6,1.1-3.5c0.8-1,1.9-1.5,3.3-1.5
			c1.3,0,2.4,0.5,3,1.5C160.2,42.9,160.4,43.9,160.4,45z M158.5,44.5c0-0.6-0.1-1.1-0.4-1.6c-0.4-0.6-0.9-0.9-1.6-0.9
			c-0.7,0-1.2,0.3-1.6,0.8c-0.3,0.4-0.5,1-0.6,1.6H158.5z"/>
		<path fill="#FFFFFF" d="M89.6,29.3c0,1.1-0.3,2-1,2.6c-0.6,0.5-1.5,0.8-2.7,0.8c-0.6,0-1.1,0-1.5-0.1v-6.2
			c0.5-0.1,1.1-0.1,1.8-0.1c1.1,0,1.9,0.2,2.5,0.7C89.2,27.5,89.6,28.3,89.6,29.3z M88.5,29.3c0-0.7-0.2-1.3-0.6-1.7
			c-0.4-0.4-1-0.6-1.7-0.6c-0.3,0-0.6,0-0.8,0.1v4.7c0.1,0,0.4,0,0.7,0c0.8,0,1.4-0.2,1.8-0.6C88.3,30.8,88.5,30.1,88.5,29.3z"/>
		<path fill="#FFFFFF" d="M95.2,30.3c0,0.7-0.2,1.3-0.6,1.7c-0.4,0.5-1,0.7-1.7,0.7c-0.7,0-1.2-0.2-1.6-0.7c-0.4-0.4-0.6-1-0.6-1.7
			c0-0.7,0.2-1.3,0.6-1.7c0.4-0.5,1-0.7,1.7-0.7c0.7,0,1.2,0.2,1.6,0.7C95,29,95.2,29.6,95.2,30.3z M94.2,30.3
			c0-0.4-0.1-0.8-0.3-1.1c-0.2-0.4-0.5-0.5-0.9-0.5c-0.4,0-0.7,0.2-0.9,0.5c-0.2,0.3-0.3,0.7-0.3,1.1c0,0.4,0.1,0.8,0.3,1.1
			c0.2,0.4,0.5,0.5,0.9,0.5c0.4,0,0.7-0.2,0.9-0.6C94.1,31.1,94.2,30.7,94.2,30.3z"/>
		<path fill="#FFFFFF" d="M102.9,28l-1.4,4.6h-0.9l-0.6-2c-0.2-0.5-0.3-1-0.4-1.5h0c-0.1,0.5-0.2,1-0.4,1.5l-0.6,2h-0.9L96.2,28h1
			l0.5,2.2c0.1,0.5,0.2,1,0.3,1.5h0c0.1-0.4,0.2-0.9,0.4-1.5l0.6-2.2h0.8l0.6,2.1c0.2,0.5,0.3,1,0.4,1.5h0c0.1-0.5,0.2-1,0.3-1.5
			l0.6-2.1H102.9z"/>
		<path fill="#FFFFFF" d="M108.1,32.6h-1V30c0-0.8-0.3-1.2-0.9-1.2c-0.3,0-0.5,0.1-0.7,0.3c-0.2,0.2-0.3,0.5-0.3,0.8v2.7h-1v-3.3
			c0-0.4,0-0.8,0-1.3h0.9l0,0.7h0c0.1-0.2,0.3-0.4,0.5-0.6c0.3-0.2,0.6-0.3,0.9-0.3c0.4,0,0.8,0.1,1.1,0.4c0.4,0.3,0.5,0.8,0.5,1.5
			V32.6z"/>
		<path fill="#FFFFFF" d="M110.9,32.6h-1v-6.7h1V32.6z"/>
		<path fill="#FFFFFF" d="M116.9,30.3c0,0.7-0.2,1.3-0.6,1.7c-0.4,0.5-1,0.7-1.7,0.7c-0.7,0-1.2-0.2-1.6-0.7c-0.4-0.4-0.6-1-0.6-1.7
			c0-0.7,0.2-1.3,0.6-1.7c0.4-0.5,1-0.7,1.7-0.7c0.7,0,1.2,0.2,1.6,0.7C116.7,29,116.9,29.6,116.9,30.3z M115.9,30.3
			c0-0.4-0.1-0.8-0.3-1.1c-0.2-0.4-0.5-0.5-0.9-0.5c-0.4,0-0.7,0.2-0.9,0.5c-0.2,0.3-0.3,0.7-0.3,1.1c0,0.4,0.1,0.8,0.3,1.1
			c0.2,0.4,0.5,0.5,0.9,0.5c0.4,0,0.7-0.2,0.9-0.6C115.8,31.1,115.9,30.7,115.9,30.3z"/>
		<path fill="#FFFFFF" d="M121.8,32.6h-0.9l-0.1-0.5h0c-0.3,0.4-0.8,0.6-1.3,0.6c-0.4,0-0.8-0.1-1-0.4c-0.2-0.3-0.4-0.6-0.4-0.9
			c0-0.6,0.2-1,0.7-1.3c0.5-0.3,1.1-0.4,2-0.4v-0.1c0-0.6-0.3-0.9-0.9-0.9c-0.5,0-0.8,0.1-1.2,0.3l-0.2-0.7c0.4-0.3,0.9-0.4,1.6-0.4
			c1.2,0,1.8,0.6,1.8,1.9v1.7C121.8,32,121.8,32.3,121.8,32.6z M120.8,31v-0.7c-1.1,0-1.7,0.3-1.7,0.9c0,0.2,0.1,0.4,0.2,0.5
			c0.1,0.1,0.3,0.2,0.5,0.2c0.2,0,0.4-0.1,0.6-0.2c0.2-0.1,0.3-0.3,0.4-0.5C120.8,31.2,120.8,31.1,120.8,31z"/>
		<path fill="#FFFFFF" d="M127.6,32.6h-0.9l0-0.7h0c-0.3,0.6-0.8,0.8-1.5,0.8c-0.6,0-1-0.2-1.4-0.6c-0.4-0.4-0.5-1-0.5-1.7
			c0-0.7,0.2-1.3,0.6-1.8c0.4-0.4,0.9-0.6,1.4-0.6c0.6,0,1,0.2,1.3,0.6h0v-2.6h1v5.4C127.6,31.8,127.6,32.2,127.6,32.6z M126.6,30.7
			v-0.8c0-0.1,0-0.2,0-0.3c-0.1-0.2-0.2-0.4-0.4-0.6c-0.2-0.2-0.4-0.2-0.7-0.2c-0.4,0-0.7,0.2-0.9,0.5c-0.2,0.3-0.3,0.7-0.3,1.2
			c0,0.5,0.1,0.8,0.3,1.1c0.2,0.3,0.5,0.5,0.9,0.5c0.3,0,0.6-0.1,0.8-0.4C126.5,31.3,126.6,31,126.6,30.7z"/>
		<path fill="#FFFFFF" d="M136.3,30.3c0,0.7-0.2,1.3-0.6,1.7c-0.4,0.5-1,0.7-1.7,0.7c-0.7,0-1.2-0.2-1.6-0.7c-0.4-0.4-0.6-1-0.6-1.7
			c0-0.7,0.2-1.3,0.6-1.7c0.4-0.5,1-0.7,1.7-0.7c0.7,0,1.2,0.2,1.6,0.7C136.1,29,136.3,29.6,136.3,30.3z M135.2,30.3
			c0-0.4-0.1-0.8-0.3-1.1c-0.2-0.4-0.5-0.5-0.9-0.5c-0.4,0-0.7,0.2-0.9,0.5c-0.2,0.3-0.3,0.7-0.3,1.1c0,0.4,0.1,0.8,0.3,1.1
			c0.2,0.4,0.5,0.5,0.9,0.5c0.4,0,0.7-0.2,0.9-0.6C135.1,31.1,135.2,30.7,135.2,30.3z"/>
		<path fill="#FFFFFF" d="M141.8,32.6h-1V30c0-0.8-0.3-1.2-0.9-1.2c-0.3,0-0.5,0.1-0.7,0.3c-0.2,0.2-0.3,0.5-0.3,0.8v2.7h-1v-3.3
			c0-0.4,0-0.8,0-1.3h0.9l0,0.7h0c0.1-0.2,0.3-0.4,0.5-0.6c0.3-0.2,0.6-0.3,0.9-0.3c0.4,0,0.8,0.1,1.1,0.4c0.4,0.3,0.5,0.8,0.5,1.5
			V32.6z"/>
		<path fill="#FFFFFF" d="M148.6,28.8h-1.1V31c0,0.6,0.2,0.8,0.6,0.8c0.2,0,0.3,0,0.5,0l0,0.8c-0.2,0.1-0.5,0.1-0.8,0.1
			c-0.4,0-0.7-0.1-0.9-0.4c-0.2-0.2-0.3-0.7-0.3-1.2v-2.3h-0.7V28h0.7v-0.8l1-0.3V28h1.1V28.8z"/>
		<path fill="#FFFFFF" d="M154,32.6h-1V30c0-0.8-0.3-1.2-0.9-1.2c-0.5,0-0.8,0.2-1,0.7c0,0.1,0,0.2,0,0.4v2.7h-1v-6.7h1v2.8h0
			c0.3-0.5,0.8-0.8,1.4-0.8c0.4,0,0.8,0.1,1,0.4c0.3,0.3,0.5,0.9,0.5,1.5V32.6z"/>
		<path fill="#FFFFFF" d="M159.5,30.1c0,0.2,0,0.3,0,0.5h-3c0,0.5,0.2,0.8,0.4,1c0.3,0.2,0.6,0.3,1,0.3c0.5,0,0.9-0.1,1.2-0.2
			l0.2,0.7c-0.4,0.2-0.9,0.3-1.5,0.3c-0.7,0-1.3-0.2-1.7-0.6c-0.4-0.4-0.6-1-0.6-1.7c0-0.7,0.2-1.3,0.6-1.7c0.4-0.5,0.9-0.7,1.6-0.7
			c0.7,0,1.2,0.2,1.5,0.7C159.4,29,159.5,29.5,159.5,30.1z M158.6,29.8c0-0.3-0.1-0.6-0.2-0.8c-0.2-0.3-0.4-0.4-0.8-0.4
			c-0.3,0-0.6,0.1-0.8,0.4c-0.2,0.2-0.3,0.5-0.3,0.8H158.6z"/>
	</g>
	<g>
		<path d="M298.6,59h-120c-2.2,0-4-1.8-4-4V23c0-2.2,1.8-4,4-4h120c2.2,0,4,1.8,4,4v32C302.6,57.2,300.8,59,298.6,59z"/>
		<linearGradient id="SVGID_1_" gradientUnits="userSpaceOnUse" x1="190.8454" y1="25.5736" x2="196.4436" y2="48.5645">
			<stop  offset="0" style="stop-color:#006884"/>
			<stop  offset="1" style="stop-color:#8AD1D0"/>
		</linearGradient>
		<path fill-rule="evenodd" clip-rule="evenodd" fill="url(#SVGID_1_)" d="M184.4,38.6V28.1c0-0.6,0.5-1.1,1-1.1
			c0.5,0,0.7,0.1,1,0.3l19.3,10.6c0.4,0.2,0.6,0.5,0.6,0.8c0,0.3-0.2,0.6-0.6,0.8L186.3,50c-0.2,0.1-0.5,0.3-1,0.3
			c-0.5,0-1-0.5-1-1.1V38.6z"/>
		<linearGradient id="SVGID_2_" gradientUnits="userSpaceOnUse" x1="184.0186" y1="28.8438" x2="199.2747" y2="37.0913">
			<stop  offset="0" style="stop-color:#24BBB6"/>
			<stop  offset="1" style="stop-color:#DBE692"/>
		</linearGradient>
		<path fill-rule="evenodd" clip-rule="evenodd" fill="url(#SVGID_2_)" d="M196.9,38.7L185.2,27c0.1,0,0.1,0,0.2,0
			c0.5,0,0.7,0.1,1,0.3l14.2,7.8L196.9,38.7z"/>
		<linearGradient id="SVGID_3_" gradientUnits="userSpaceOnUse" x1="201.5724" y1="42.6201" x2="201.5724" y2="34.6717">
			<stop  offset="0" style="stop-color:#FCC072"/>
			<stop  offset="1" style="stop-color:#F58A5B"/>
		</linearGradient>
		<path fill-rule="evenodd" clip-rule="evenodd" fill="url(#SVGID_3_)" d="M200.5,42.2l-3.6-3.6l3.7-3.7l5.1,2.8
			c0.4,0.2,0.6,0.5,0.6,0.8c0,0.3-0.2,0.6-0.6,0.8L200.5,42.2z"/>
		<linearGradient id="SVGID_4_" gradientUnits="userSpaceOnUse" x1="186.9727" y1="52.2692" x2="199.0244" y2="40.0039">
			<stop  offset="0" style="stop-color:#712B8F"/>
			<stop  offset="1" style="stop-color:#EA1D27"/>
		</linearGradient>
		<path fill-rule="evenodd" clip-rule="evenodd" fill="url(#SVGID_4_)" d="M185.3,50.2L185.3,50.2l11.6-11.6l3.6,3.6L186.3,50
			C186.1,50.1,185.9,50.2,185.3,50.2C185.4,50.2,185.3,50.2,185.3,50.2z"/>
		<path fill-rule="evenodd" clip-rule="evenodd" fill="#FFFFFF" d="M245.7,52.9c-0.5-0.4-0.9-1.1-1.1-1.5l1.6-0.7
			c0.1,0.2,0.3,0.5,0.5,0.8c0.4,0.4,1,0.8,1.6,0.8c0.6,0,1.3-0.3,1.7-0.8c0.3-0.5,0.5-1,0.5-1.7v-0.6c-1.2,1.5-3.7,1.3-5.1-0.3
			c-1.5-1.6-1.5-4.3,0-5.9c1.5-1.5,3.7-1.7,5-0.3c0,0,0,0,0,0v-0.7h1.7v7.6c0,1.9-0.7,3-1.6,3.7c-0.6,0.5-1.5,0.7-2.3,0.7
			C247.3,53.8,246.4,53.5,245.7,52.9L245.7,52.9z M287.5,53.3L287.5,53.3l1.7-4l-3-6.9h1.7l2.1,4.9l2.1-4.9h1.7l-4.6,10.9H287.5
			L287.5,53.3z M279.5,49.5L279.5,49.5c-0.5-0.5-0.7-1.2-0.7-1.9c0-0.6,0.2-1.2,0.6-1.6c0.7-0.7,1.7-1,2.8-1c0.7,0,1.3,0.1,1.8,0.4
			c0-1.2-1-1.7-1.8-1.7c-0.7,0-1.4,0.4-1.7,1.1l-1.5-0.6c0.3-0.7,1.1-2,3.1-2c1,0,2,0.3,2.6,1c0.6,0.7,0.8,1.5,0.8,2.6V50h-1.7v-0.7
			c-0.2,0.3-0.6,0.5-0.9,0.7c-0.4,0.2-0.9,0.3-1.4,0.3C280.9,50.2,280,50,279.5,49.5L279.5,49.5z M226.2,45.9L226.2,45.9
			c0-2,1.5-4.2,4.2-4.2c2.6,0,4.2,2.2,4.2,4.2c0,2-1.5,4.2-4.2,4.2C227.7,50.1,226.2,47.9,226.2,45.9L226.2,45.9z M235.2,45.9
			L235.2,45.9c0-2,1.5-4.2,4.2-4.2c2.6,0,4.2,2.2,4.2,4.2c0,2-1.5,4.2-4.2,4.2C236.7,50.1,235.2,47.9,235.2,45.9L235.2,45.9z
			 M214.9,48.1L214.9,48.1c-2.5-2.5-2.4-6.6,0.1-9.2c1.3-1.3,2.9-1.9,4.6-1.9c1.6,0,3.2,0.6,4.4,1.8l-1.2,1.3
			c-1.8-1.8-4.7-1.7-6.4,0.1c-1.8,1.9-1.8,4.8,0,6.7c1.8,1.9,4.8,2,6.6,0.1c0.6-0.6,0.8-1.4,0.9-2.2h-4.2v-1.8h5.9
			c0.1,0.4,0.1,0.9,0.1,1.4c0,1.5-0.6,3-1.6,4c-1.1,1.1-2.7,1.7-4.3,1.7C217.9,50,216.2,49.4,214.9,48.1L214.9,48.1z M257.2,48.8
			L257.2,48.8c-1.5-1.6-1.5-4.3,0-6c1.5-1.6,4-1.6,5.4,0c0.5,0.5,0.8,1.2,1.1,1.9l-5.5,2.3c0.3,0.7,1,1.3,2,1.3
			c0.9,0,1.5-0.3,2.1-1.2l1.5,1h0c-0.2,0.2-0.4,0.4-0.5,0.6C261.6,50.4,258.6,50.4,257.2,48.8L257.2,48.8z M267.6,50L267.6,50V38.9
			h3.6c2.1,0,3.8,1.5,3.8,3.3s-1.5,3.3-3.4,3.3h-2.2V50H267.6L267.6,50z M276,50L276,50V38.9h1.7V50H276L276,50z M253.4,49.8
			L253.4,49.8V37.4h1.8v12.4H253.4L253.4,49.8z M283.9,46.7L283.9,46.7c-0.4-0.3-1-0.4-1.6-0.4c-1.2,0-1.9,0.6-1.9,1.3
			c0,0.7,0.7,1.1,1.4,1.1C282.8,48.7,283.9,47.9,283.9,46.7L283.9,46.7z M232.7,45.9L232.7,45.9c0-1.2-0.8-2.5-2.3-2.5
			c-1.5,0-2.3,1.3-2.3,2.5c0,1.2,0.8,2.5,2.3,2.5C231.8,48.4,232.7,47.1,232.7,45.9L232.7,45.9z M241.7,45.9L241.7,45.9
			c0-1.2-0.8-2.5-2.3-2.5c-1.5,0-2.3,1.3-2.3,2.5c0,1.2,0.8,2.5,2.3,2.5C240.9,48.4,241.7,47.1,241.7,45.9L241.7,45.9z M250.5,46.6
			L250.5,46.6c0-0.1,0-0.2,0.1-0.3c0,0,0,0,0,0c0-0.1,0-0.3,0-0.4c0-0.1,0-0.3,0-0.4c0,0,0-0.1,0-0.1c0-0.1-0.1-0.3-0.1-0.4
			c-0.3-1-1.2-1.7-2.1-1.7c-1.2,0-2.2,1.2-2.2,2.5c0,1.4,1,2.5,2.3,2.5C249.4,48.4,250.2,47.7,250.5,46.6L250.5,46.6z M257.8,45.7
			L257.8,45.7l3.7-1.6c-0.4-0.7-1-0.9-1.5-0.9C258.6,43.3,257.6,44.9,257.8,45.7L257.8,45.7z M273.2,42.3L273.2,42.3
			c0-1-0.8-1.7-1.9-1.7h-2v3.5h2.1C272.4,44.1,273.2,43.3,273.2,42.3z"/>
		<polygon fill-rule="evenodd" clip-rule="evenodd" fill="#FFFFFF" points="288.8,51.3 288.8,51.3 288.8,51.3 288.8,51.3 
			288.8,51.2 288.8,51.2 288.8,51.2 288.8,51.2 288.8,51.2 288.8,51.2 288.8,51.3 288.8,51.3 		"/>
		<path fill-rule="evenodd" clip-rule="evenodd" fill="#FFFFFF" d="M288.8,51.3L288.8,51.3C288.8,51.2,288.8,51.2,288.8,51.3
			L288.8,51.3C288.8,51.2,288.8,51.2,288.8,51.3L288.8,51.3L288.8,51.3L288.8,51.3L288.8,51.3L288.8,51.3L288.8,51.3L288.8,51.3
			L288.8,51.3z M288.8,51.2L288.8,51.2C288.8,51.2,288.8,51.2,288.8,51.2L288.8,51.2L288.8,51.2L288.8,51.2
			C288.8,51.2,288.8,51.2,288.8,51.2L288.8,51.2z"/>
		<polygon fill-rule="evenodd" clip-rule="evenodd" fill="#FFFFFF" points="288.9,51.3 288.9,51.3 288.9,51.2 288.9,51.2 
			288.9,51.2 288.9,51.2 288.9,51.2 288.9,51.2 288.9,51.2 288.8,51.2 288.8,51.3 288.9,51.3 		"/>
		<path fill-rule="evenodd" clip-rule="evenodd" fill="#FFFFFF" d="M288.9,51.3L288.9,51.3L288.9,51.3L288.9,51.3L288.9,51.3
			L288.9,51.3L288.9,51.3L288.9,51.3L288.9,51.3L288.9,51.3z M288.9,51.2L288.9,51.2L288.9,51.2L288.9,51.2L288.9,51.2L288.9,51.2
			L288.9,51.2z"/>
		<polygon fill-rule="evenodd" clip-rule="evenodd" fill="#FFFFFF" points="288.9,51.2 288.9,51.2 288.9,51.2 288.9,51.2 
			288.9,51.3 288.9,51.3 288.9,51.2 288.9,51.2 		"/>
		<polygon fill-rule="evenodd" clip-rule="evenodd" fill="#FFFFFF" points="288.9,51.3 288.9,51.3 288.9,51.2 288.9,51.2 
			288.9,51.2 288.9,51.2 288.9,51.2 288.9,51.2 288.9,51.2 288.9,51.2 288.9,51.3 288.9,51.3 		"/>
		<path fill-rule="evenodd" clip-rule="evenodd" fill="#FFFFFF" d="M288.9,51.3L288.9,51.3C288.9,51.2,288.9,51.2,288.9,51.3
			L288.9,51.3L288.9,51.3L288.9,51.3C288.9,51.3,288.9,51.3,288.9,51.3L288.9,51.3z M288.9,51.3L288.9,51.3
			C288.9,51.3,288.9,51.3,288.9,51.3L288.9,51.3L288.9,51.3L288.9,51.3C288.9,51.2,288.9,51.2,288.9,51.3L288.9,51.3z"/>
		<path fill-rule="evenodd" clip-rule="evenodd" fill="#FFFFFF" d="M288.9,51.3L288.9,51.3C288.9,51.2,288.9,51.2,288.9,51.3
			C288.9,51.2,288.9,51.2,288.9,51.3L288.9,51.3C288.9,51.2,288.9,51.2,288.9,51.3L288.9,51.3L288.9,51.3L288.9,51.3
			C288.9,51.3,288.9,51.3,288.9,51.3L288.9,51.3z M288.9,51.2L288.9,51.2C288.9,51.2,288.9,51.2,288.9,51.2L288.9,51.2L288.9,51.2
			L288.9,51.2C288.9,51.2,288.9,51.2,288.9,51.2L288.9,51.2L288.9,51.2z M288.9,51.3L288.9,51.3C288.9,51.3,288.9,51.3,288.9,51.3
			L288.9,51.3L288.9,51.3L288.9,51.3C288.9,51.2,288.9,51.2,288.9,51.3L288.9,51.3z"/>
		<polygon fill-rule="evenodd" clip-rule="evenodd" fill="#FFFFFF" points="289,51.2 288.9,51.2 288.9,51.2 288.9,51.2 288.9,51.2 
			288.9,51.2 288.9,51.2 288.9,51.2 288.9,51.3 288.9,51.3 288.9,51.2 		"/>
		<polygon fill-rule="evenodd" clip-rule="evenodd" fill="#FFFFFF" points="289,51.3 289,51.3 289,51.2 289,51.2 289,51.3 289,51.3 
					"/>
		<path fill-rule="evenodd" clip-rule="evenodd" fill="#FFFFFF" d="M289,51.3L289,51.3C289,51.2,289,51.2,289,51.3
			C289,51.2,289,51.2,289,51.3L289,51.3C289,51.3,289,51.3,289,51.3C289,51.3,289,51.3,289,51.3L289,51.3z M289,51.2L289,51.2
			C289,51.3,289,51.3,289,51.2C289,51.3,289,51.3,289,51.2L289,51.2C289,51.2,289,51.2,289,51.2C289,51.2,289,51.2,289,51.2
			L289,51.2z"/>
		<path fill-rule="evenodd" clip-rule="evenodd" fill="#FFFFFF" d="M289,51.3L289,51.3L289,51.3L289,51.3L289,51.3L289,51.3
			C289,51.3,289,51.3,289,51.3C289,51.3,289,51.3,289,51.3L289,51.3C289,51.2,289,51.2,289,51.3C289,51.2,289,51.2,289,51.3
			L289,51.3C289,51.2,289,51.2,289,51.3C289,51.2,289,51.2,289,51.3L289,51.3C289,51.3,289,51.3,289,51.3
			C289,51.3,289,51.3,289,51.3L289,51.3z"/>
		<path fill-rule="evenodd" clip-rule="evenodd" fill="#FFFFFF" d="M289,51.3L289,51.3C289,51.2,289,51.2,289,51.3
			C289,51.2,289,51.2,289,51.3L289,51.3C289,51.3,289,51.3,289,51.3C289,51.3,289,51.3,289,51.3L289,51.3z M289,51.2L289,51.2
			C289,51.3,289,51.3,289,51.2C289,51.3,289,51.3,289,51.2L289,51.2C289,51.2,289,51.2,289,51.2C289,51.2,289,51.2,289,51.2
			L289,51.2z"/>
		<polygon fill-rule="evenodd" clip-rule="evenodd" fill="#FFFFFF" points="289.1,51.3 289.1,51.2 289.1,51.2 289.1,51.2 
			289.1,51.2 289.1,51.2 289.1,51.3 289.1,51.3 289.1,51.2 289.1,51.2 289.1,51.3 289.1,51.3 289.1,51.2 289.1,51.2 289.1,51.3 		
			"/>
		<path fill-rule="evenodd" clip-rule="evenodd" fill="#FFFFFF" d="M289.1,51.3L289.1,51.3L289.1,51.3L289.1,51.3L289.1,51.3
			L289.1,51.3L289.1,51.3L289.1,51.3L289.1,51.3L289.1,51.3z M289.1,51.2L289.1,51.2L289.1,51.2L289.1,51.2
			C289.1,51.2,289.1,51.2,289.1,51.2C289.1,51.2,289.1,51.2,289.1,51.2L289.1,51.2z"/>
		<path fill-rule="evenodd" clip-rule="evenodd" fill="#FFFFFF" d="M289.1,51.3C289.1,51.2,289.1,51.2,289.1,51.3
			C289.1,51.2,289.1,51.2,289.1,51.3C289.1,51.2,289.1,51.2,289.1,51.3C289.1,51.2,289.1,51.2,289.1,51.3L289.1,51.3
			C289.1,51.2,289.1,51.2,289.1,51.3C289.1,51.2,289.1,51.2,289.1,51.3C289.1,51.2,289.1,51.2,289.1,51.3
			C289.1,51.2,289.1,51.2,289.1,51.3C289.1,51.3,289.1,51.3,289.1,51.3C289.1,51.3,289.1,51.3,289.1,51.3L289.1,51.3
			C289.1,51.3,289.1,51.3,289.1,51.3C289.1,51.3,289.1,51.3,289.1,51.3z"/>
		<polygon fill-rule="evenodd" clip-rule="evenodd" fill="#FFFFFF" points="289.1,51.2 289.1,51.2 289.1,51.2 289.1,51.2 
			289.1,51.3 289.1,51.3 289.1,51.2 289.1,51.2 		"/>
		<polygon fill-rule="evenodd" clip-rule="evenodd" fill="#FFFFFF" points="289.2,51.3 289.2,51.3 289.2,51.2 289.2,51.2 
			289.2,51.2 289.2,51.2 289.2,51.2 289.2,51.2 289.2,51.2 289.1,51.2 289.1,51.3 289.2,51.3 		"/>
		<path fill-rule="evenodd" clip-rule="evenodd" fill="#FFFFFF" d="M289.2,51.3L289.2,51.3C289.2,51.2,289.2,51.2,289.2,51.3
			L289.2,51.3C289.2,51.2,289.2,51.2,289.2,51.3L289.2,51.3L289.2,51.3L289.2,51.3L289.2,51.3L289.2,51.3L289.2,51.3L289.2,51.3
			L289.2,51.3z M289.2,51.2L289.2,51.2C289.2,51.2,289.2,51.2,289.2,51.2L289.2,51.2L289.2,51.2L289.2,51.2
			C289.2,51.2,289.2,51.2,289.2,51.2L289.2,51.2z"/>
		<path fill="#FFFFFF" d="M213.5,29.1c0-1.8,1.3-2.9,2.9-2.9c1.1,0,1.8,0.5,2.3,1.2l-0.8,0.5c-0.3-0.4-0.8-0.7-1.5-0.7
			c-1.1,0-1.9,0.8-1.9,2c0,1.2,0.8,2,1.9,2c0.6,0,1.1-0.3,1.3-0.5v-0.9h-1.7v-0.9h2.7v2.1c-0.5,0.6-1.3,1-2.3,1
			C214.8,32,213.5,30.8,213.5,29.1z"/>
		<path fill="#FFFFFF" d="M220,31.9v-5.6h3.8v0.9H221v1.4h2.8v0.9H221V31h2.9v0.9L220,31.9L220,31.9z"/>
		<path fill="#FFFFFF" d="M226.5,31.9v-4.7h-1.7v-0.9h4.4v0.9h-1.7v4.7H226.5z"/>
		<path fill="#FFFFFF" d="M232.7,31.9v-5.6h1v5.6H232.7z"/>
		<path fill="#FFFFFF" d="M236.4,31.9v-4.7h-1.7v-0.9h4.4v0.9h-1.7v4.7H236.4z"/>
		<path fill="#FFFFFF" d="M242.3,29.1c0-1.7,1.2-2.9,2.9-2.9c1.7,0,2.9,1.2,2.9,2.9c0,1.7-1.2,2.9-2.9,2.9
			C243.4,32,242.3,30.7,242.3,29.1z M247,29.1c0-1.2-0.7-2-1.9-2c-1.1,0-1.9,0.9-1.9,2c0,1.2,0.7,2,1.9,2
			C246.3,31.1,247,30.2,247,29.1z"/>
		<path fill="#FFFFFF" d="M253.1,31.9l-2.9-4v4h-1v-5.6h1l2.9,3.9v-3.9h1v5.6H253.1z"/>
	</g>
</g>
</svg>
