<?xml version="1.0" encoding="utf-8"?>
<!-- Generator: Adobe Illustrator 22.0.1, SVG Export Plug-In . SVG Version: 6.00 Build 0)  -->
<svg version="1.1" id="Layer_1" xmlns="http://www.w3.org/2000/svg" xmlns:xlink="http://www.w3.org/1999/xlink" x="0px" y="0px"
	 viewBox="0 0 361.8 393.3" style="enable-background:new 0 0 361.8 393.3;" xml:space="preserve">
<style type="text/css">
	.st0{fill:#FFFFFF;}
</style>
<g>
	<g>
		<path class="st0" d="M73.1,284.5c1.9,0,3.5,0.3,4.8,1c1.3,0.6,2.4,1.5,3.2,2.7c1,1.3,1.5,2.7,1.7,4.2c0.2,1.5,0.3,3,0.3,4.4v14.8
			c0,1.1-0.3,1.8-1,2.4c-0.6,0.4-1.6,0.8-2.9,0.8c-1.1,0-2-0.2-2.8-0.6c-0.8-0.4-1.1-1.3-1.1-2.4v-14.6c0-1.6-0.2-2.8-0.5-3.5
			c-0.3-0.8-0.9-1.3-1.5-1.6s-1.5-0.4-2.5-0.4c-1,0-1.8,0.1-2.6,0.4c-0.8,0.3-1.3,0.6-1.8,1.1c-0.4,0.4-0.9,1-1.1,1.5
			c-0.2,0.5-0.4,1-0.5,1.5c-0.2,0.6-0.3,1.4-0.3,2.3c0,0.9,0,1.6,0,2.1v11.2c0,1.2-0.3,1.9-1,2.5c-0.6,0.5-1.6,0.8-3,0.8
			c-1.2,0-2-0.2-2.7-0.8c-0.6-0.4-1-1.3-1-2.4v-33.5c0-1,0.3-1.8,1-2.4c0.6-0.5,1.6-0.9,3-0.9c0.4,0,1,0,1.4,0.1
			c0.4,0.1,0.9,0.2,1.2,0.4c0.3,0.2,0.6,0.5,0.9,1c0.2,0.4,0.3,1,0.3,1.6v10.4c0.8-1,1.8-1.9,3.2-2.8
			C69.2,285,71.1,284.5,73.1,284.5z"/>
		<path class="st0" d="M119.1,299.6c0,2.4-0.3,4.5-1.1,6.3c-0.8,1.9-1.7,3.5-3,4.8c-1.3,1.3-2.9,2.4-4.7,3.1
			c-1.8,0.8-3.9,1.1-6.1,1.1s-4.4-0.3-6.2-1.1c-1.8-0.8-3.4-1.7-4.7-3.1c-1.3-1.3-2.3-3-3-4.8c-0.6-1.9-1.1-4-1.1-6.3
			c0-2.3,0.3-4.4,1.1-6.2c0.8-1.8,1.7-3.4,3.1-4.8c1.3-1.3,2.9-2.4,4.7-3.1c1.8-0.8,3.9-1.1,6.1-1.1s4.3,0.3,6,1.1
			c1.8,0.8,3.3,1.7,4.6,3s2.3,2.9,3,4.7C118.8,295.3,119.1,297.3,119.1,299.6z M111.4,299.9c0-2.8-0.6-4.9-1.8-6.4
			c-1.2-1.6-3-2.4-5.3-2.4c-2.1,0-3.9,0.8-5,2.4c-1.3,1.5-1.8,3.8-1.8,6.4c0,2.8,0.6,4.9,1.8,6.4c1.3,1.5,2.9,2.3,5,2.3
			c2.3,0,4-0.8,5.3-2.3C110.8,304.8,111.4,302.6,111.4,299.9z"/>
		<path class="st0" d="M153.7,299.6c0,2.4-0.3,4.5-1.1,6.3c-0.8,1.9-1.7,3.5-3,4.8c-1.3,1.3-2.9,2.4-4.7,3.1
			c-1.8,0.8-3.9,1.1-6.1,1.1s-4.4-0.3-6.2-1.1c-1.8-0.8-3.4-1.7-4.7-3.1c-1.3-1.3-2.3-3-3-4.8c-0.6-1.9-1.1-4-1.1-6.3
			c0-2.3,0.3-4.4,1.1-6.2c0.8-1.8,1.7-3.4,3.1-4.8c1.3-1.3,2.9-2.4,4.7-3.1c1.8-0.8,3.9-1.1,6.1-1.1c2.3,0,4.3,0.3,6,1.1
			c1.8,0.8,3.3,1.7,4.6,3s2.3,2.9,3,4.7C153.3,295.3,153.7,297.3,153.7,299.6z M145.9,299.9c0-2.8-0.6-4.9-1.8-6.4
			c-1.2-1.6-3-2.4-5.3-2.4c-2.1,0-3.9,0.8-5,2.4c-1.3,1.5-1.8,3.8-1.8,6.4c0,2.8,0.6,4.9,1.8,6.4c1.3,1.5,2.9,2.3,5,2.3
			c2.3,0,4-0.8,5.3-2.3C145.3,304.8,145.9,302.6,145.9,299.9z"/>
		<path class="st0" d="M186.9,311.4c0,2-1.2,3.1-3.6,3.1c-1.4,0-2.4-0.2-3-0.8c-0.6-0.4-0.9-1.3-0.9-2.4v-0.2
			c-0.4,0.8-1.1,1.4-1.9,1.9c-0.6,0.5-1.5,1-2.6,1.3c-1.1,0.4-2.3,0.5-3.8,0.5c-2,0-3.8-0.4-5.4-1.2s-2.9-1.8-4-3.2s-1.8-3-2.5-4.8
			c-0.5-1.8-0.9-4-0.9-6.1c0-2.1,0.3-4.2,0.9-6.1c0.5-1.8,1.4-3.4,2.5-4.8s2.5-2.4,4-3.2c1.6-0.8,3.3-1.2,5.4-1.2
			c1.1,0,2.1,0.1,3,0.4c0.9,0.2,1.6,0.6,2.3,1c0.6,0.4,1.2,0.9,1.6,1.4s0.8,1.1,1.1,1.5v-10.8c0-1.2,0.4-1.9,1.2-2.4
			c0.8-0.4,1.7-0.5,2.7-0.5c1.3,0,2.3,0.3,2.9,0.9c0.6,0.5,1,1.3,1,2.3v33.5H186.9z M166.5,299.9c0,2.6,0.5,4.7,1.6,6.3
			c1.1,1.7,2.7,2.5,4.9,2.5c2.1,0,3.8-0.8,4.8-2.4c1.1-1.6,1.7-3.8,1.7-6.4c0-1.3-0.1-2.5-0.4-3.5c-0.3-1.1-0.6-2-1.2-2.8
			c-0.5-0.8-1.2-1.4-2-1.8c-0.9-0.4-1.7-0.6-2.8-0.6s-2,0.2-2.9,0.6s-1.5,1.1-2,1.8s-1,1.7-1.3,2.8
			C166.6,297.4,166.5,298.6,166.5,299.9z"/>
		<path class="st0" d="M217.4,305.7c0,3.1-1.2,5.5-3.4,7c-2.3,1.6-5.4,2.4-9.2,2.4c-2.3,0-4.2-0.2-6-0.8c-1.7-0.5-3.2-1.2-4.3-1.9
			c-0.4-0.3-0.9-0.8-1.1-1.2s-0.3-0.9-0.3-1.3c0-0.8,0.2-1.4,0.5-2.1c0.3-0.5,0.6-1.1,1.2-1.4c0.4-0.3,1-0.5,1.6-0.5
			c0.5,0,1.1,0.2,1.6,0.5c0.5,0.3,1.1,0.8,1.7,1.1c0.6,0.4,1.4,0.8,2.3,1.1s1.9,0.5,3.2,0.5c1.6,0,2.8-0.2,3.4-0.8
			c0.8-0.5,1.1-1.2,1.1-2.1c0-0.6-0.2-1.3-0.8-1.8c-0.5-0.5-1.5-1-3.1-1.2l-3.3-0.5c-1.4-0.2-2.6-0.5-3.8-1c-1.2-0.4-2.1-1-2.9-1.7
			c-0.9-0.6-1.4-1.5-1.9-2.5c-0.4-1-0.6-2.1-0.6-3.5c0-1.5,0.3-2.8,0.9-4c0.6-1.2,1.4-2.1,2.5-2.9s2.4-1.4,3.9-1.8
			c1.5-0.4,3.1-0.6,4.9-0.6c2.6,0,4.7,0.3,6.3,1c1.6,0.6,2.8,1.3,3.6,1.8c0.4,0.4,0.9,0.9,1,1.2c0.2,0.4,0.3,0.9,0.3,1.2
			c0,0.9-0.2,1.6-0.8,2.3c-0.3,0.3-0.6,0.6-1,0.9c-0.3,0.2-0.8,0.3-1.2,0.3c-0.4,0-0.9-0.1-1.3-0.2c-0.4-0.2-0.8-0.3-1.1-0.5
			c-1-0.6-1.9-1.1-2.9-1.4c-1-0.3-2.1-0.5-3.6-0.5c-1.4,0-2.5,0.2-3.2,0.8c-0.6,0.5-1.1,1.1-1.1,1.8c0,0.6,0.2,1.3,0.8,1.7
			c0.5,0.5,1.6,0.9,3.2,1.2l3,0.5c3.3,0.6,5.8,1.6,7.3,3C216.6,300.9,217.4,303,217.4,305.7z"/>
		<path class="st0" d="M227.8,273.7c1.1,0,2,0.3,3,1c0.9,0.6,1.4,1.7,1.4,3.1c0,1.3-0.4,2.3-1.2,3c-0.8,0.8-1.8,1.1-3.1,1.1
			s-2.4-0.3-3.1-1.1c-0.8-0.8-1.2-1.7-1.2-3c0-1.2,0.4-2.1,1.2-3C225.4,274.1,226.5,273.7,227.8,273.7z M227.8,314.5c-2.7,0-4-1-4-3
			v-22.9c0-1.1,0.3-1.9,1-2.6c0.6-0.6,1.6-1,3.1-1c1.2,0,2.1,0.2,2.8,0.8c0.6,0.5,1,1.3,1,2.4v23.1c0,1.1-0.3,1.9-1,2.4
			C229.9,314.3,228.9,314.5,227.8,314.5z"/>
		<path class="st0" d="M266.2,312.3c0,2.5-0.3,4.6-1,6.4c-0.6,1.8-1.5,3.2-2.8,4.4c-1.2,1.2-2.7,2-4.5,2.6c-1.7,0.5-3.8,0.9-6,0.9
			c-2.7,0-4.8-0.2-6.4-0.6s-2.7-1-3.5-1.5c-0.9-0.6-1.3-1.4-1.3-2.5c0-1,0.3-1.8,0.9-2.6c0.5-0.8,1.4-1.2,2.4-1.2
			c0.5,0,1.1,0.1,1.5,0.3s1,0.5,1.5,0.9c0.5,0.3,1.2,0.5,2,0.9c0.8,0.2,1.8,0.3,3.1,0.3c2,0,3.6-0.5,4.8-1.7
			c1.2-1.2,1.7-2.9,1.7-5.2v-3.2c-0.8,1-1.8,1.8-3.2,2.6c-1.4,0.8-3.1,1.2-5.2,1.2c-1.9,0-3.6-0.3-5.2-1.1c-1.5-0.6-2.8-1.6-3.9-2.9
			c-1.1-1.3-1.8-2.8-2.5-4.6c-0.5-1.8-0.9-3.9-0.9-6c0-2.3,0.3-4.3,0.9-6.1c0.6-1.8,1.4-3.4,2.5-4.7s2.4-2.3,4-3
			c1.5-0.8,3.2-1.1,5.2-1.1c1.2,0,2.1,0.1,3,0.4c0.9,0.2,1.6,0.5,2.4,1c0.6,0.4,1.2,0.9,1.7,1.3c0.4,0.4,0.9,0.9,1.2,1.3v-1.2
			c0-1,0.3-1.6,1.1-1.9c0.8-0.3,1.5-0.5,2.5-0.5c1.4,0,2.4,0.3,3,1c0.6,0.6,1,1.5,1,2.5v23.8H266.2z M258.9,299.4
			c0-2.5-0.5-4.5-1.6-6.1c-1.1-1.6-2.7-2.4-4.9-2.4c-2,0-3.5,0.8-4.6,2.4c-1.1,1.5-1.6,3.5-1.6,6c0,2.6,0.5,4.5,1.6,6
			c1.1,1.5,2.6,2.1,4.5,2.1c2.1,0,3.9-0.6,4.9-2C258.4,304.1,258.9,302,258.9,299.4z"/>
		<path class="st0" d="M289.8,284.5c1.9,0,3.5,0.3,4.8,1c1.3,0.6,2.4,1.5,3.3,2.7c1,1.3,1.5,2.7,1.7,4.2c0.2,1.5,0.3,3,0.3,4.4v14.8
			c0,1.1-0.3,1.8-1,2.4c-0.6,0.4-1.6,0.8-2.9,0.8c-1.1,0-2-0.2-2.8-0.6s-1.1-1.3-1.1-2.4v-14.6c0-1.6-0.2-2.8-0.5-3.5
			c-0.3-0.8-0.9-1.3-1.5-1.6c-0.6-0.3-1.5-0.4-2.5-0.4c-1,0-1.8,0.1-2.6,0.4c-0.8,0.3-1.3,0.8-1.8,1.2c-0.5,0.4-0.9,1-1.1,1.5
			c-0.2,0.5-0.4,1-0.5,1.5c-0.2,0.6-0.3,1.4-0.3,2.3c0,0.9,0,1.6,0,2.1v10.9c0,1.2-0.3,1.9-1,2.5c-0.6,0.5-1.6,0.8-3,0.8
			c-1.2,0-2-0.2-2.7-0.8c-0.6-0.4-1-1.3-1-2.4v-23c0-1,0.3-1.8,0.9-2.5c0.5-0.6,1.6-1,3-1c1,0,1.8,0.2,2.6,0.6
			c0.8,0.4,1.1,1.3,1.1,2.6v0.6c0.8-1.2,1.9-2.1,3.3-3C286,285,287.9,284.5,289.8,284.5z"/>
	</g>
</g>
<path class="st0" d="M216.2,65.9H143c-47,0-85.7,37.2-85.7,84.2v0.2c0,5.3,0.6,10.4,1.6,15.5c4.2,24.9,19.6,46,40.7,58.2
	c20,20.4,48.9,37.1,56.6,37.1c8,0,6.8-15.2,5.2-24.2h48.1c2.1,0,4.2-0.5,6.3-0.5h0.4c47,0,83.6-39,83.6-86v-0.2
	C299.7,103.1,263.2,65.9,216.2,65.9z M206.7,152.6L206.7,152.6l-22.6,8.7v29.8h-7.4v-56.2l-11.8-31.1L149.8,136v46.1h-10.5v-61
	h-15.8v78.4h-11.6v-35.2H85.7V195c-10.5-12.2-16.4-28.3-16.4-46.1c0-38.9,30-71.9,66.8-71.9H222c36.9,0,66.8,33,66.8,71.9
	c0,16.8-5.6,32-14.7,44l-3.2,3.8v-3.2v-35.6l-31.6-9.2v58.2h-12.6v-47.8L206.7,152.6z"/>
</svg>
