<?xml version="1.0" encoding="utf-8"?>
<!-- Generator: Adobe Illustrator 22.0.1, SVG Export Plug-In . SVG Version: 6.00 Build 0)  -->
<svg version="1.1" id="Layer_1" xmlns="http://www.w3.org/2000/svg" xmlns:xlink="http://www.w3.org/1999/xlink" x="0px" y="0px"
	 viewBox="0 0 262.7 237.2" style="enable-background:new 0 0 262.7 237.2;" xml:space="preserve">
<style type="text/css">
	.st0{fill:#B0D35D;}
</style>
<g>
	<path class="st0" d="M162.6,20.4h-62.5c-47.7,0-86.6,38.8-86.6,86.6c0,33.9,19.6,63.3,48,77.5c18.8,18,44.1,32.4,51,32.4
		c7.7,0,6.7-14.5,5.1-23.3h6c0,0,0,0,0,0h39c47.7,0,86.6-38.8,86.6-86.6S210.3,20.4,162.6,20.4z M162.6,184.3h-62.5
		c-11.5,0-22.5-2.5-32.4-7.1c-1.4-0.7-2.8-1.5-4.2-2.3c0,0.1-0.1,0.1-0.1,0.2C39.3,162,22.8,136.4,22.8,107
		c0-42.6,34.7-77.3,77.3-77.3h62.5c42.6,0,77.3,34.7,77.3,77.3S205.2,184.3,162.6,184.3z"/>
	<path class="st0" d="M143.2,110.9V98.1c0-1.6-1.3-3-3-3c-1.6,0-3,1.3-3,3v12.8h-6.9v-10.7c0-3.9-1.7-7.6-4.7-10.1
		c-9.4-8-10.5-22.1-2.5-31.5c0.9-1,1.8-1.9,2.8-2.7c1-0.8,2.6-0.7,3.4,0.4c0.3,0.4,0.5,1,0.5,1.5v10.3c0,3.5,2.8,6.4,6.4,6.4
		c0,0,0,0,0,0h7.8c3.5,0,6.4-2.9,6.4-6.4l0,0V57.8c0-1.3,1.1-2.4,2.4-2.4c0.6,0,1.1,0.2,1.5,0.5c9.5,7.8,10.9,21.9,3.1,31.4
		c-0.8,1-1.8,2-2.8,2.8c-3,2.5-4.7,6.2-4.7,10.1v10.7H143.2z M180.3,109.2c-3.1-2.4-7.4-2-10,1l-12,13.5c0,0.1,0,0.1,0,0.2
		c-0.3,6.6-5.8,11.8-12.4,11.7h-13c-1.5-0.2-2.5-1.5-2.3-3c0.2-1.2,1.1-2.1,2.3-2.3h13c3.8,0.1,6.9-2.9,7.1-6.6
		c0.1-3.8-2.8-6.9-6.6-7c-0.1,0-0.1,0-0.2,0h-21.6l-3.5-1.2c-8.8-3.1-18.6-0.9-25.2,5.7l-16,15.9l22.3,21.8l6.3-6.3h36
		c4.9,0,9.5-2.1,12.7-5.8l24-27.5c2.6-2.9,2.3-7.4-0.7-10C180.4,109.3,180.4,109.3,180.3,109.2z"/>
</g>
</svg>
