<?xml version="1.0" encoding="utf-8"?>
<!-- Generator: Adobe Illustrator 22.0.1, SVG Export Plug-In . SVG Version: 6.00 Build 0)  -->
<svg version="1.1" id="Layer_1" xmlns="http://www.w3.org/2000/svg" xmlns:xlink="http://www.w3.org/1999/xlink" x="0px" y="0px"
	 width="110.3px" height="49px" viewBox="0 0 110.3 49" style="enable-background:new 0 0 110.3 49;" xml:space="preserve">
<style type="text/css">
	.st0{opacity:0.49;fill:#5E5756;}
	.st1{fill:#F45D26;}
	.st2{fill:#FFFFFF;}
</style>
<path class="st0" d="M6.5,47.1l15.7-24.5L6.5,0h103.8v47.1H6.5z"/>
<path class="st1" d="M7.5,45.7l15.6-23.8L7.5,0h102.8v45.7H7.5z"/>
<g>
	<path class="st2" d="M38.7,33.4V10.9h4.7l5.8,9.7c1.5,2.5,2.8,5.1,3.8,7.6h0.1c-0.3-3-0.4-5.9-0.4-9.4v-7.9h3.8v22.5h-4.2l-5.9-9.9
		c-1.4-2.5-2.9-5.2-4-7.8l-0.1,0c0.2,2.9,0.2,5.9,0.2,9.6v8.1H38.7z"/>
	<path class="st2" d="M64.1,26.4c0.1,2.9,2.4,4.2,5,4.2c1.9,0,3.3-0.3,4.5-0.7l0.6,2.8c-1.4,0.6-3.3,1-5.7,1c-5.3,0-8.4-3.2-8.4-8.2
		c0-4.5,2.7-8.8,8-8.8c5.3,0,7,4.3,7,7.9c0,0.8-0.1,1.4-0.1,1.7H64.1z M71.2,23.6c0-1.5-0.6-4-3.4-4c-2.5,0-3.6,2.3-3.8,4H71.2z"/>
	<path class="st2" d="M80.8,17.2l1.7,7.4c0.4,1.7,0.7,3.5,1,5.3h0.1c0.3-1.8,0.9-3.6,1.3-5.2l2.1-7.4h3.3l2,7.2
		c0.5,1.9,0.9,3.7,1.3,5.4h0.1c0.3-1.8,0.6-3.5,1.1-5.4l1.8-7.2h4l-5.1,16.3h-3.8l-1.9-6.6c-0.5-1.7-0.9-3.2-1.2-5.2h-0.1
		c-0.3,2-0.8,3.6-1.2,5.2l-2.1,6.6h-3.8l-4.8-16.3H80.8z"/>
</g>
</svg>
