<?xml version="1.0" encoding="utf-8"?>
<!-- Generator: Adobe Illustrator 22.0.1, SVG Export Plug-In . SVG Version: 6.00 Build 0)  -->
<svg version="1.1" id="Layer_1" xmlns="http://www.w3.org/2000/svg" xmlns:xlink="http://www.w3.org/1999/xlink" x="0px" y="0px"
	 viewBox="0 0 226.8 226.8" style="enable-background:new 0 0 226.8 226.8;" xml:space="preserve">
<style type="text/css">
	.st0{fill:#FFFFFF;}
</style>
<g>
	<g>
		<path class="st0" d="M153.7,172.2c-13.2,13.8-29.5-8-39.4-8s-25.7,22.2-39.4,8c-12.9-13.4,1.6-63.7,39.4-63.7
			C153.3,108.6,166.6,158.8,153.7,172.2z"/>
	</g>
	<g>
		<g>
			<path class="st0" d="M106.6,68.1c2.1,11.6-2.1,22.3-9.5,23.8c-7.4,1.5-15.1-6.7-17.3-18.3c-2.1-11.6,2.1-22.3,9.5-23.8
				C96.7,48.3,104.5,56.5,106.6,68.1z"/>
		</g>
		<g>
			<path class="st0" d="M69.4,94c5.5,7.9,5.5,17.7,0.1,21.8c-5.4,4.1-14.2,1-19.7-6.9c-5.5-7.9-5.5-17.7-0.1-21.8
				C55.2,83,64,86.1,69.4,94z"/>
		</g>
		<g>
			<path class="st0" d="M122,68.1c-2.1,11.6,2.1,22.3,9.5,23.8c7.4,1.5,15.1-6.7,17.3-18.3c2.1-11.6-2.1-22.3-9.5-23.8
				C131.9,48.3,124.2,56.5,122,68.1z"/>
		</g>
		<g>
			<path class="st0" d="M159.2,94c-5.5,7.9-5.5,17.7-0.1,21.8c5.4,4.1,14.2,1,19.7-6.9c5.5-7.9,5.5-17.7,0.1-21.8
				C173.5,83,164.7,86.1,159.2,94z"/>
		</g>
	</g>
</g>
<g>
	<path class="st0" d="M113.4,211.2c-53.9,0-97.8-43.9-97.8-97.8s43.9-97.8,97.8-97.8c53.9,0,97.8,43.9,97.8,97.8
		S167.3,211.2,113.4,211.2z M113.4,21.6c-50.6,0-91.8,41.2-91.8,91.8c0,50.6,41.2,91.8,91.8,91.8s91.8-41.2,91.8-91.8
		C205.2,62.7,164,21.6,113.4,21.6z"/>
</g>
</svg>
