<?xml version="1.0" encoding="utf-8"?>
<!-- Generator: Adobe Illustrator 22.0.1, SVG Export Plug-In . SVG Version: 6.00 Build 0)  -->
<svg version="1.1" id="Layer_1" xmlns="http://www.w3.org/2000/svg" xmlns:xlink="http://www.w3.org/1999/xlink" x="0px" y="0px"
	 viewBox="0 0 227.6 227.6" style="enable-background:new 0 0 227.6 227.6;" xml:space="preserve">
<style type="text/css">
	.st0{fill:#FFFFFF;}
	.st1{fill:#010101;}
	.st2{fill:none;}
</style>
<g>
	<rect class="st0" width="227.6" height="227.6"/>
	<g transform="translate(80,80)">
		<g transform="translate(320,0) scale(0.4,0.4)">
			<g transform="">
				<rect x="-803.8" y="-160.8" class="st1" width="19.6" height="19.6"/>
			</g>
		</g>
		<g transform="translate(360,0) scale(0.4,0.4)">
			<g transform="">
				<rect x="-884.2" y="-160.8" class="st1" width="19.6" height="19.6"/>
			</g>
		</g>
		<g transform="translate(400,0) scale(0.4,0.4)">
			<g transform="">
				<rect x="-964.6" y="-160.8" class="st1" width="19.6" height="19.6"/>
			</g>
		</g>
		<g transform="translate(440,0) scale(0.4,0.4)">
			<g transform="">
				<rect x="-1044.9" y="-160.8" class="st1" width="19.6" height="19.6"/>
			</g>
		</g>
		<g transform="translate(560,0) scale(0.4,0.4)">
			<g transform="">
				<rect x="-1286.1" y="-160.8" class="st1" width="19.6" height="19.6"/>
			</g>
		</g>
		<g transform="translate(360,40) scale(0.4,0.4)">
			<g transform="">
				<rect x="-884.2" y="-241.1" class="st1" width="19.6" height="19.6"/>
			</g>
		</g>
		<g transform="translate(400,40) scale(0.4,0.4)">
			<g transform="">
				<rect x="-964.6" y="-241.1" class="st1" width="19.6" height="19.6"/>
			</g>
		</g>
		<g transform="translate(520,40) scale(0.4,0.4)">
			<g transform="">
				<rect x="-1205.7" y="-241.1" class="st1" width="19.6" height="19.6"/>
			</g>
		</g>
		<g transform="translate(560,40) scale(0.4,0.4)">
			<g transform="">
				<rect x="-1286.1" y="-241.1" class="st1" width="19.6" height="19.6"/>
			</g>
		</g>
		<g transform="translate(640,40) scale(0.4,0.4)">
			<g transform="">
				<rect x="-1446.8" y="-241.1" class="st1" width="19.6" height="19.6"/>
			</g>
		</g>
		<g transform="translate(320,80) scale(0.4,0.4)">
			<g transform="">
				<rect x="-803.8" y="-321.5" class="st1" width="19.6" height="19.6"/>
			</g>
		</g>
		<g transform="translate(360,80) scale(0.4,0.4)">
			<g transform="">
				<rect x="-884.2" y="-321.5" class="st1" width="19.6" height="19.6"/>
			</g>
		</g>
		<g transform="translate(400,80) scale(0.4,0.4)">
			<g transform="">
				<rect x="-964.6" y="-321.5" class="st1" width="19.6" height="19.6"/>
			</g>
		</g>
		<g transform="translate(440,80) scale(0.4,0.4)">
			<g transform="">
				<rect x="-1044.9" y="-321.5" class="st1" width="19.6" height="19.6"/>
			</g>
		</g>
		<g transform="translate(480,80) scale(0.4,0.4)">
			<g transform="">
				<rect x="-1125.3" y="-321.5" class="st1" width="19.6" height="19.6"/>
			</g>
		</g>
		<g transform="translate(520,80) scale(0.4,0.4)">
			<g transform="">
				<rect x="-1205.7" y="-321.5" class="st1" width="19.6" height="19.6"/>
			</g>
		</g>
		<g transform="translate(640,80) scale(0.4,0.4)">
			<g transform="">
				<rect x="-1446.8" y="-321.5" class="st1" width="19.6" height="19.6"/>
			</g>
		</g>
		<g transform="translate(440,120) scale(0.4,0.4)">
			<g transform="">
				<rect x="-1044.9" y="-401.9" class="st1" width="19.6" height="19.6"/>
			</g>
		</g>
		<g transform="translate(520,120) scale(0.4,0.4)">
			<g transform="">
				<rect x="-1205.7" y="-401.9" class="st1" width="19.6" height="19.6"/>
			</g>
		</g>
		<g transform="translate(560,120) scale(0.4,0.4)">
			<g transform="">
				<rect x="-1286.1" y="-401.9" class="st1" width="19.6" height="19.6"/>
			</g>
		</g>
		<g transform="translate(400,160) scale(0.4,0.4)">
			<g transform="">
				<rect x="-964.6" y="-482.3" class="st1" width="19.6" height="19.6"/>
			</g>
		</g>
		<g transform="translate(440,160) scale(0.4,0.4)">
			<g transform="">
				<rect x="-1044.9" y="-482.3" class="st1" width="19.6" height="19.6"/>
			</g>
		</g>
		<g transform="translate(480,160) scale(0.4,0.4)">
			<g transform="">
				<rect x="-1125.3" y="-482.3" class="st1" width="19.6" height="19.6"/>
			</g>
		</g>
		<g transform="translate(560,160) scale(0.4,0.4)">
			<g transform="">
				<rect x="-1286.1" y="-482.3" class="st1" width="19.6" height="19.6"/>
			</g>
		</g>
		<g transform="translate(320,200) scale(0.4,0.4)">
			<g transform="">
				<rect x="-803.8" y="-562.7" class="st1" width="19.6" height="19.6"/>
			</g>
		</g>
		<g transform="translate(440,200) scale(0.4,0.4)">
			<g transform="">
				<rect x="-1044.9" y="-562.7" class="st1" width="19.6" height="19.6"/>
			</g>
		</g>
		<g transform="translate(480,200) scale(0.4,0.4)">
			<g transform="">
				<rect x="-1125.3" y="-562.7" class="st1" width="19.6" height="19.6"/>
			</g>
		</g>
		<g transform="translate(560,200) scale(0.4,0.4)">
			<g transform="">
				<rect x="-1286.1" y="-562.7" class="st1" width="19.6" height="19.6"/>
			</g>
		</g>
		<g transform="translate(320,240) scale(0.4,0.4)">
			<g transform="">
				<rect x="-803.8" y="-643" class="st1" width="19.6" height="19.6"/>
			</g>
		</g>
		<g transform="translate(400,240) scale(0.4,0.4)">
			<g transform="">
				<rect x="-964.6" y="-643" class="st1" width="19.6" height="19.6"/>
			</g>
		</g>
		<g transform="translate(480,240) scale(0.4,0.4)">
			<g transform="">
				<rect x="-1125.3" y="-643" class="st1" width="19.6" height="19.6"/>
			</g>
		</g>
		<g transform="translate(560,240) scale(0.4,0.4)">
			<g transform="">
				<rect x="-1286.1" y="-643" class="st1" width="19.6" height="19.6"/>
			</g>
		</g>
		<g transform="translate(640,240) scale(0.4,0.4)">
			<g transform="">
				<rect x="-1446.8" y="-643" class="st1" width="19.6" height="19.6"/>
			</g>
		</g>
		<g transform="translate(360,280) scale(0.4,0.4)">
			<g transform="">
				<rect x="-884.2" y="-723.4" class="st1" width="19.6" height="19.6"/>
			</g>
		</g>
		<g transform="translate(400,280) scale(0.4,0.4)">
			<g transform="">
				<rect x="-964.6" y="-723.4" class="st1" width="19.6" height="19.6"/>
			</g>
		</g>
		<g transform="translate(480,280) scale(0.4,0.4)">
			<g transform="">
				<rect x="-1125.3" y="-723.4" class="st1" width="19.6" height="19.6"/>
			</g>
		</g>
		<g transform="translate(560,280) scale(0.4,0.4)">
			<g transform="">
				<rect x="-1286.1" y="-723.4" class="st1" width="19.6" height="19.6"/>
			</g>
		</g>
		<g transform="translate(600,280) scale(0.4,0.4)">
			<g transform="">
				<rect x="-1366.5" y="-723.4" class="st1" width="19.6" height="19.6"/>
			</g>
		</g>
		<g transform="translate(640,280) scale(0.4,0.4)">
			<g transform="">
				<rect x="-1446.8" y="-723.4" class="st1" width="19.6" height="19.6"/>
			</g>
		</g>
		<g transform="translate(0,320) scale(0.4,0.4)">
			<g transform="">
				<rect x="-160.8" y="-803.8" class="st1" width="19.6" height="19.6"/>
			</g>
		</g>
		<g transform="translate(80,320) scale(0.4,0.4)">
			<g transform="">
				<rect x="-321.5" y="-803.8" class="st1" width="19.6" height="19.6"/>
			</g>
		</g>
		<g transform="translate(240,320) scale(0.4,0.4)">
			<g transform="">
				<rect x="-643" y="-803.8" class="st1" width="19.6" height="19.6"/>
			</g>
		</g>
		<g transform="translate(280,320) scale(0.4,0.4)">
			<g transform="">
				<rect x="-723.4" y="-803.8" class="st1" width="19.6" height="19.6"/>
			</g>
		</g>
		<g transform="translate(440,320) scale(0.4,0.4)">
			<g transform="">
				<rect x="-1044.9" y="-803.8" class="st1" width="19.6" height="19.6"/>
			</g>
		</g>
		<g transform="translate(520,320) scale(0.4,0.4)">
			<g transform="">
				<rect x="-1205.7" y="-803.8" class="st1" width="19.6" height="19.6"/>
			</g>
		</g>
		<g transform="translate(560,320) scale(0.4,0.4)">
			<g transform="">
				<rect x="-1286.1" y="-803.8" class="st1" width="19.6" height="19.6"/>
			</g>
		</g>
		<g transform="translate(640,320) scale(0.4,0.4)">
			<g transform="">
				<rect x="-1446.8" y="-803.8" class="st1" width="19.6" height="19.6"/>
			</g>
		</g>
		<g transform="translate(760,320) scale(0.4,0.4)">
			<g transform="">
				<rect x="-1688" y="-803.8" class="st1" width="19.6" height="19.6"/>
			</g>
		</g>
		<g transform="translate(880,320) scale(0.4,0.4)">
			<g transform="">
				<rect x="-1929.1" y="-803.8" class="st1" width="19.6" height="19.6"/>
			</g>
		</g>
		<g transform="translate(960,320) scale(0.4,0.4)">
			<g transform="">
				<rect x="-2089.9" y="-803.8" class="st1" width="19.6" height="19.6"/>
			</g>
		</g>
		<g transform="translate(0,360) scale(0.4,0.4)">
			<g transform="">
				<rect x="-160.8" y="-884.2" class="st1" width="19.6" height="19.6"/>
			</g>
		</g>
		<g transform="translate(40,360) scale(0.4,0.4)">
			<g transform="">
				<rect x="-241.1" y="-884.2" class="st1" width="19.6" height="19.6"/>
			</g>
		</g>
		<g transform="translate(80,360) scale(0.4,0.4)">
			<g transform="">
				<rect x="-321.5" y="-884.2" class="st1" width="19.6" height="19.6"/>
			</g>
		</g>
		<g transform="translate(120,360) scale(0.4,0.4)">
			<g transform="">
				<rect x="-401.9" y="-884.2" class="st1" width="19.6" height="19.6"/>
			</g>
		</g>
		<g transform="translate(200,360) scale(0.4,0.4)">
			<g transform="">
				<rect x="-562.7" y="-884.2" class="st1" width="19.6" height="19.6"/>
			</g>
		</g>
		<g transform="translate(440,360) scale(0.4,0.4)">
			<g transform="">
				<rect x="-1044.9" y="-884.2" class="st1" width="19.6" height="19.6"/>
			</g>
		</g>
		<g transform="translate(480,360) scale(0.4,0.4)">
			<g transform="">
				<rect x="-1125.3" y="-884.2" class="st1" width="19.6" height="19.6"/>
			</g>
		</g>
		<g transform="translate(520,360) scale(0.4,0.4)">
			<g transform="">
				<rect x="-1205.7" y="-884.2" class="st1" width="19.6" height="19.6"/>
			</g>
		</g>
		<g transform="translate(600,360) scale(0.4,0.4)">
			<g transform="">
				<rect x="-1366.5" y="-884.2" class="st1" width="19.6" height="19.6"/>
			</g>
		</g>
		<g transform="translate(720,360) scale(0.4,0.4)">
			<g transform="">
				<rect x="-1607.6" y="-884.2" class="st1" width="19.6" height="19.6"/>
			</g>
		</g>
		<g transform="translate(760,360) scale(0.4,0.4)">
			<g transform="">
				<rect x="-1688" y="-884.2" class="st1" width="19.6" height="19.6"/>
			</g>
		</g>
		<g transform="translate(840,360) scale(0.4,0.4)">
			<g transform="">
				<rect x="-1848.8" y="-884.2" class="st1" width="19.6" height="19.6"/>
			</g>
		</g>
		<g transform="translate(920,360) scale(0.4,0.4)">
			<g transform="">
				<rect x="-2009.5" y="-884.2" class="st1" width="19.6" height="19.6"/>
			</g>
		</g>
		<g transform="translate(960,360) scale(0.4,0.4)">
			<g transform="">
				<rect x="-2089.9" y="-884.2" class="st1" width="19.6" height="19.6"/>
			</g>
		</g>
		<g transform="translate(40,400) scale(0.4,0.4)">
			<g transform="">
				<rect x="-241.1" y="-964.6" class="st1" width="19.6" height="19.6"/>
			</g>
		</g>
		<g transform="translate(160,400) scale(0.4,0.4)">
			<g transform="">
				<rect x="-482.3" y="-964.6" class="st1" width="19.6" height="19.6"/>
			</g>
		</g>
		<g transform="translate(200,400) scale(0.4,0.4)">
			<g transform="">
				<rect x="-562.7" y="-964.6" class="st1" width="19.6" height="19.6"/>
			</g>
		</g>
		<g transform="translate(240,400) scale(0.4,0.4)">
			<g transform="">
				<rect x="-643" y="-964.6" class="st1" width="19.6" height="19.6"/>
			</g>
		</g>
		<g transform="translate(320,400) scale(0.4,0.4)">
			<g transform="">
				<rect x="-803.8" y="-964.6" class="st1" width="19.6" height="19.6"/>
			</g>
		</g>
		<g transform="translate(360,400) scale(0.4,0.4)">
			<g transform="">
				<rect x="-884.2" y="-964.6" class="st1" width="19.6" height="19.6"/>
			</g>
		</g>
		<g transform="translate(400,400) scale(0.4,0.4)">
			<g transform="">
				<rect x="-964.6" y="-964.6" class="st1" width="19.6" height="19.6"/>
			</g>
		</g>
		<g transform="translate(600,400) scale(0.4,0.4)">
			<g transform="">
				<rect x="-1366.5" y="-964.6" class="st1" width="19.6" height="19.6"/>
			</g>
		</g>
		<g transform="translate(640,400) scale(0.4,0.4)">
			<g transform="">
				<rect x="-1446.8" y="-964.6" class="st1" width="19.6" height="19.6"/>
			</g>
		</g>
		<g transform="translate(840,400) scale(0.4,0.4)">
			<g transform="">
				<rect x="-1848.8" y="-964.6" class="st1" width="19.6" height="19.6"/>
			</g>
		</g>
		<g transform="translate(880,400) scale(0.4,0.4)">
			<g transform="">
				<rect x="-1929.1" y="-964.6" class="st1" width="19.6" height="19.6"/>
			</g>
		</g>
		<g transform="translate(960,400) scale(0.4,0.4)">
			<g transform="">
				<rect x="-2089.9" y="-964.6" class="st1" width="19.6" height="19.6"/>
			</g>
		</g>
		<g transform="translate(0,440) scale(0.4,0.4)">
			<g transform="">
				<rect x="-160.8" y="-1044.9" class="st1" width="19.6" height="19.6"/>
			</g>
		</g>
		<g transform="translate(160,440) scale(0.4,0.4)">
			<g transform="">
				<rect x="-482.3" y="-1044.9" class="st1" width="19.6" height="19.6"/>
			</g>
		</g>
		<g transform="translate(200,440) scale(0.4,0.4)">
			<g transform="">
				<rect x="-562.7" y="-1044.9" class="st1" width="19.6" height="19.6"/>
			</g>
		</g>
		<g transform="translate(280,440) scale(0.4,0.4)">
			<g transform="">
				<rect x="-723.4" y="-1044.9" class="st1" width="19.6" height="19.6"/>
			</g>
		</g>
		<g transform="translate(320,440) scale(0.4,0.4)">
			<g transform="">
				<rect x="-803.8" y="-1044.9" class="st1" width="19.6" height="19.6"/>
			</g>
		</g>
		<g transform="translate(400,440) scale(0.4,0.4)">
			<g transform="">
				<rect x="-964.6" y="-1044.9" class="st1" width="19.6" height="19.6"/>
			</g>
		</g>
		<g transform="translate(520,440) scale(0.4,0.4)">
			<g transform="">
				<rect x="-1205.7" y="-1044.9" class="st1" width="19.6" height="19.6"/>
			</g>
		</g>
		<g transform="translate(600,440) scale(0.4,0.4)">
			<g transform="">
				<rect x="-1366.5" y="-1044.9" class="st1" width="19.6" height="19.6"/>
			</g>
		</g>
		<g transform="translate(640,440) scale(0.4,0.4)">
			<g transform="">
				<rect x="-1446.8" y="-1044.9" class="st1" width="19.6" height="19.6"/>
			</g>
		</g>
		<g transform="translate(680,440) scale(0.4,0.4)">
			<g transform="">
				<rect x="-1527.2" y="-1044.9" class="st1" width="19.6" height="19.6"/>
			</g>
		</g>
		<g transform="translate(720,440) scale(0.4,0.4)">
			<g transform="">
				<rect x="-1607.6" y="-1044.9" class="st1" width="19.6" height="19.6"/>
			</g>
		</g>
		<g transform="translate(760,440) scale(0.4,0.4)">
			<g transform="">
				<rect x="-1688" y="-1044.9" class="st1" width="19.6" height="19.6"/>
			</g>
		</g>
		<g transform="translate(800,440) scale(0.4,0.4)">
			<g transform="">
				<rect x="-1768.4" y="-1044.9" class="st1" width="19.6" height="19.6"/>
			</g>
		</g>
		<g transform="translate(840,440) scale(0.4,0.4)">
			<g transform="">
				<rect x="-1848.8" y="-1044.9" class="st1" width="19.6" height="19.6"/>
			</g>
		</g>
		<g transform="translate(80,480) scale(0.4,0.4)">
			<g transform="">
				<rect x="-321.5" y="-1125.3" class="st1" width="19.6" height="19.6"/>
			</g>
		</g>
		<g transform="translate(160,480) scale(0.4,0.4)">
			<g transform="">
				<rect x="-482.3" y="-1125.3" class="st1" width="19.6" height="19.6"/>
			</g>
		</g>
		<g transform="translate(240,480) scale(0.4,0.4)">
			<g transform="">
				<rect x="-643" y="-1125.3" class="st1" width="19.6" height="19.6"/>
			</g>
		</g>
		<g transform="translate(320,480) scale(0.4,0.4)">
			<g transform="">
				<rect x="-803.8" y="-1125.3" class="st1" width="19.6" height="19.6"/>
			</g>
		</g>
		<g transform="translate(360,480) scale(0.4,0.4)">
			<g transform="">
				<rect x="-884.2" y="-1125.3" class="st1" width="19.6" height="19.6"/>
			</g>
		</g>
		<g transform="translate(480,480) scale(0.4,0.4)">
			<g transform="">
				<rect x="-1125.3" y="-1125.3" class="st1" width="19.6" height="19.6"/>
			</g>
		</g>
		<g transform="translate(520,480) scale(0.4,0.4)">
			<g transform="">
				<rect x="-1205.7" y="-1125.3" class="st1" width="19.6" height="19.6"/>
			</g>
		</g>
		<g transform="translate(640,480) scale(0.4,0.4)">
			<g transform="">
				<rect x="-1446.8" y="-1125.3" class="st1" width="19.6" height="19.6"/>
			</g>
		</g>
		<g transform="translate(720,480) scale(0.4,0.4)">
			<g transform="">
				<rect x="-1607.6" y="-1125.3" class="st1" width="19.6" height="19.6"/>
			</g>
		</g>
		<g transform="translate(760,480) scale(0.4,0.4)">
			<g transform="">
				<rect x="-1688" y="-1125.3" class="st1" width="19.6" height="19.6"/>
			</g>
		</g>
		<g transform="translate(960,480) scale(0.4,0.4)">
			<g transform="">
				<rect x="-2089.9" y="-1125.3" class="st1" width="19.6" height="19.6"/>
			</g>
		</g>
		<g transform="translate(40,520) scale(0.4,0.4)">
			<g transform="">
				<rect x="-241.1" y="-1205.7" class="st1" width="19.6" height="19.6"/>
			</g>
		</g>
		<g transform="translate(80,520) scale(0.4,0.4)">
			<g transform="">
				<rect x="-321.5" y="-1205.7" class="st1" width="19.6" height="19.6"/>
			</g>
		</g>
		<g transform="translate(120,520) scale(0.4,0.4)">
			<g transform="">
				<rect x="-401.9" y="-1205.7" class="st1" width="19.6" height="19.6"/>
			</g>
		</g>
		<g transform="translate(160,520) scale(0.4,0.4)">
			<g transform="">
				<rect x="-482.3" y="-1205.7" class="st1" width="19.6" height="19.6"/>
			</g>
		</g>
		<g transform="translate(320,520) scale(0.4,0.4)">
			<g transform="">
				<rect x="-803.8" y="-1205.7" class="st1" width="19.6" height="19.6"/>
			</g>
		</g>
		<g transform="translate(360,520) scale(0.4,0.4)">
			<g transform="">
				<rect x="-884.2" y="-1205.7" class="st1" width="19.6" height="19.6"/>
			</g>
		</g>
		<g transform="translate(400,520) scale(0.4,0.4)">
			<g transform="">
				<rect x="-964.6" y="-1205.7" class="st1" width="19.6" height="19.6"/>
			</g>
		</g>
		<g transform="translate(480,520) scale(0.4,0.4)">
			<g transform="">
				<rect x="-1125.3" y="-1205.7" class="st1" width="19.6" height="19.6"/>
			</g>
		</g>
		<g transform="translate(600,520) scale(0.4,0.4)">
			<g transform="">
				<rect x="-1366.5" y="-1205.7" class="st1" width="19.6" height="19.6"/>
			</g>
		</g>
		<g transform="translate(640,520) scale(0.4,0.4)">
			<g transform="">
				<rect x="-1446.8" y="-1205.7" class="st1" width="19.6" height="19.6"/>
			</g>
		</g>
		<g transform="translate(720,520) scale(0.4,0.4)">
			<g transform="">
				<rect x="-1607.6" y="-1205.7" class="st1" width="19.6" height="19.6"/>
			</g>
		</g>
		<g transform="translate(760,520) scale(0.4,0.4)">
			<g transform="">
				<rect x="-1688" y="-1205.7" class="st1" width="19.6" height="19.6"/>
			</g>
		</g>
		<g transform="translate(920,520) scale(0.4,0.4)">
			<g transform="">
				<rect x="-2009.5" y="-1205.7" class="st1" width="19.6" height="19.6"/>
			</g>
		</g>
		<g transform="translate(960,520) scale(0.4,0.4)">
			<g transform="">
				<rect x="-2089.9" y="-1205.7" class="st1" width="19.6" height="19.6"/>
			</g>
		</g>
		<g transform="translate(0,560) scale(0.4,0.4)">
			<g transform="">
				<rect x="-160.8" y="-1286.1" class="st1" width="19.6" height="19.6"/>
			</g>
		</g>
		<g transform="translate(40,560) scale(0.4,0.4)">
			<g transform="">
				<rect x="-241.1" y="-1286.1" class="st1" width="19.6" height="19.6"/>
			</g>
		</g>
		<g transform="translate(200,560) scale(0.4,0.4)">
			<g transform="">
				<rect x="-562.7" y="-1286.1" class="st1" width="19.6" height="19.6"/>
			</g>
		</g>
		<g transform="translate(240,560) scale(0.4,0.4)">
			<g transform="">
				<rect x="-643" y="-1286.1" class="st1" width="19.6" height="19.6"/>
			</g>
		</g>
		<g transform="translate(320,560) scale(0.4,0.4)">
			<g transform="">
				<rect x="-803.8" y="-1286.1" class="st1" width="19.6" height="19.6"/>
			</g>
		</g>
		<g transform="translate(480,560) scale(0.4,0.4)">
			<g transform="">
				<rect x="-1125.3" y="-1286.1" class="st1" width="19.6" height="19.6"/>
			</g>
		</g>
		<g transform="translate(520,560) scale(0.4,0.4)">
			<g transform="">
				<rect x="-1205.7" y="-1286.1" class="st1" width="19.6" height="19.6"/>
			</g>
		</g>
		<g transform="translate(560,560) scale(0.4,0.4)">
			<g transform="">
				<rect x="-1286.1" y="-1286.1" class="st1" width="19.6" height="19.6"/>
			</g>
		</g>
		<g transform="translate(600,560) scale(0.4,0.4)">
			<g transform="">
				<rect x="-1366.5" y="-1286.1" class="st1" width="19.6" height="19.6"/>
			</g>
		</g>
		<g transform="translate(720,560) scale(0.4,0.4)">
			<g transform="">
				<rect x="-1607.6" y="-1286.1" class="st1" width="19.6" height="19.6"/>
			</g>
		</g>
		<g transform="translate(760,560) scale(0.4,0.4)">
			<g transform="">
				<rect x="-1688" y="-1286.1" class="st1" width="19.6" height="19.6"/>
			</g>
		</g>
		<g transform="translate(800,560) scale(0.4,0.4)">
			<g transform="">
				<rect x="-1768.4" y="-1286.1" class="st1" width="19.6" height="19.6"/>
			</g>
		</g>
		<g transform="translate(840,560) scale(0.4,0.4)">
			<g transform="">
				<rect x="-1848.8" y="-1286.1" class="st1" width="19.6" height="19.6"/>
			</g>
		</g>
		<g transform="translate(880,560) scale(0.4,0.4)">
			<g transform="">
				<rect x="-1929.1" y="-1286.1" class="st1" width="19.6" height="19.6"/>
			</g>
		</g>
		<g transform="translate(960,560) scale(0.4,0.4)">
			<g transform="">
				<rect x="-2089.9" y="-1286.1" class="st1" width="19.6" height="19.6"/>
			</g>
		</g>
		<g transform="translate(160,600) scale(0.4,0.4)">
			<g transform="">
				<rect x="-482.3" y="-1366.5" class="st1" width="19.6" height="19.6"/>
			</g>
		</g>
		<g transform="translate(320,600) scale(0.4,0.4)">
			<g transform="">
				<rect x="-803.8" y="-1366.5" class="st1" width="19.6" height="19.6"/>
			</g>
		</g>
		<g transform="translate(400,600) scale(0.4,0.4)">
			<g transform="">
				<rect x="-964.6" y="-1366.5" class="st1" width="19.6" height="19.6"/>
			</g>
		</g>
		<g transform="translate(440,600) scale(0.4,0.4)">
			<g transform="">
				<rect x="-1044.9" y="-1366.5" class="st1" width="19.6" height="19.6"/>
			</g>
		</g>
		<g transform="translate(480,600) scale(0.4,0.4)">
			<g transform="">
				<rect x="-1125.3" y="-1366.5" class="st1" width="19.6" height="19.6"/>
			</g>
		</g>
		<g transform="translate(560,600) scale(0.4,0.4)">
			<g transform="">
				<rect x="-1286.1" y="-1366.5" class="st1" width="19.6" height="19.6"/>
			</g>
		</g>
		<g transform="translate(600,600) scale(0.4,0.4)">
			<g transform="">
				<rect x="-1366.5" y="-1366.5" class="st1" width="19.6" height="19.6"/>
			</g>
		</g>
		<g transform="translate(640,600) scale(0.4,0.4)">
			<g transform="">
				<rect x="-1446.8" y="-1366.5" class="st1" width="19.6" height="19.6"/>
			</g>
		</g>
		<g transform="translate(800,600) scale(0.4,0.4)">
			<g transform="">
				<rect x="-1768.4" y="-1366.5" class="st1" width="19.6" height="19.6"/>
			</g>
		</g>
		<g transform="translate(0,640) scale(0.4,0.4)">
			<g transform="">
				<rect x="-160.8" y="-1446.8" class="st1" width="19.6" height="19.6"/>
			</g>
		</g>
		<g transform="translate(40,640) scale(0.4,0.4)">
			<g transform="">
				<rect x="-241.1" y="-1446.8" class="st1" width="19.6" height="19.6"/>
			</g>
		</g>
		<g transform="translate(80,640) scale(0.4,0.4)">
			<g transform="">
				<rect x="-321.5" y="-1446.8" class="st1" width="19.6" height="19.6"/>
			</g>
		</g>
		<g transform="translate(160,640) scale(0.4,0.4)">
			<g transform="">
				<rect x="-482.3" y="-1446.8" class="st1" width="19.6" height="19.6"/>
			</g>
		</g>
		<g transform="translate(240,640) scale(0.4,0.4)">
			<g transform="">
				<rect x="-643" y="-1446.8" class="st1" width="19.6" height="19.6"/>
			</g>
		</g>
		<g transform="translate(280,640) scale(0.4,0.4)">
			<g transform="">
				<rect x="-723.4" y="-1446.8" class="st1" width="19.6" height="19.6"/>
			</g>
		</g>
		<g transform="translate(520,640) scale(0.4,0.4)">
			<g transform="">
				<rect x="-1205.7" y="-1446.8" class="st1" width="19.6" height="19.6"/>
			</g>
		</g>
		<g transform="translate(560,640) scale(0.4,0.4)">
			<g transform="">
				<rect x="-1286.1" y="-1446.8" class="st1" width="19.6" height="19.6"/>
			</g>
		</g>
		<g transform="translate(600,640) scale(0.4,0.4)">
			<g transform="">
				<rect x="-1366.5" y="-1446.8" class="st1" width="19.6" height="19.6"/>
			</g>
		</g>
		<g transform="translate(640,640) scale(0.4,0.4)">
			<g transform="">
				<rect x="-1446.8" y="-1446.8" class="st1" width="19.6" height="19.6"/>
			</g>
		</g>
		<g transform="translate(680,640) scale(0.4,0.4)">
			<g transform="">
				<rect x="-1527.2" y="-1446.8" class="st1" width="19.6" height="19.6"/>
			</g>
		</g>
		<g transform="translate(720,640) scale(0.4,0.4)">
			<g transform="">
				<rect x="-1607.6" y="-1446.8" class="st1" width="19.6" height="19.6"/>
			</g>
		</g>
		<g transform="translate(760,640) scale(0.4,0.4)">
			<g transform="">
				<rect x="-1688" y="-1446.8" class="st1" width="19.6" height="19.6"/>
			</g>
		</g>
		<g transform="translate(800,640) scale(0.4,0.4)">
			<g transform="">
				<rect x="-1768.4" y="-1446.8" class="st1" width="19.6" height="19.6"/>
			</g>
		</g>
		<g transform="translate(920,640) scale(0.4,0.4)">
			<g transform="">
				<rect x="-2009.5" y="-1446.8" class="st1" width="19.6" height="19.6"/>
			</g>
		</g>
		<g transform="translate(320,680) scale(0.4,0.4)">
			<g transform="">
				<rect x="-803.8" y="-1527.2" class="st1" width="19.6" height="19.6"/>
			</g>
		</g>
		<g transform="translate(400,680) scale(0.4,0.4)">
			<g transform="">
				<rect x="-964.6" y="-1527.2" class="st1" width="19.6" height="19.6"/>
			</g>
		</g>
		<g transform="translate(520,680) scale(0.4,0.4)">
			<g transform="">
				<rect x="-1205.7" y="-1527.2" class="st1" width="19.6" height="19.6"/>
			</g>
		</g>
		<g transform="translate(560,680) scale(0.4,0.4)">
			<g transform="">
				<rect x="-1286.1" y="-1527.2" class="st1" width="19.6" height="19.6"/>
			</g>
		</g>
		<g transform="translate(640,680) scale(0.4,0.4)">
			<g transform="">
				<rect x="-1446.8" y="-1527.2" class="st1" width="19.6" height="19.6"/>
			</g>
		</g>
		<g transform="translate(800,680) scale(0.4,0.4)">
			<g transform="">
				<rect x="-1768.4" y="-1527.2" class="st1" width="19.6" height="19.6"/>
			</g>
		</g>
		<g transform="translate(880,680) scale(0.4,0.4)">
			<g transform="">
				<rect x="-1929.1" y="-1527.2" class="st1" width="19.6" height="19.6"/>
			</g>
		</g>
		<g transform="translate(960,680) scale(0.4,0.4)">
			<g transform="">
				<rect x="-2089.9" y="-1527.2" class="st1" width="19.6" height="19.6"/>
			</g>
		</g>
		<g transform="translate(320,720) scale(0.4,0.4)">
			<g transform="">
				<rect x="-803.8" y="-1607.6" class="st1" width="19.6" height="19.6"/>
			</g>
		</g>
		<g transform="translate(440,720) scale(0.4,0.4)">
			<g transform="">
				<rect x="-1044.9" y="-1607.6" class="st1" width="19.6" height="19.6"/>
			</g>
		</g>
		<g transform="translate(640,720) scale(0.4,0.4)">
			<g transform="">
				<rect x="-1446.8" y="-1607.6" class="st1" width="19.6" height="19.6"/>
			</g>
		</g>
		<g transform="translate(720,720) scale(0.4,0.4)">
			<g transform="">
				<rect x="-1607.6" y="-1607.6" class="st1" width="19.6" height="19.6"/>
			</g>
		</g>
		<g transform="translate(800,720) scale(0.4,0.4)">
			<g transform="">
				<rect x="-1768.4" y="-1607.6" class="st1" width="19.6" height="19.6"/>
			</g>
		</g>
		<g transform="translate(840,720) scale(0.4,0.4)">
			<g transform="">
				<rect x="-1848.8" y="-1607.6" class="st1" width="19.6" height="19.6"/>
			</g>
		</g>
		<g transform="translate(960,720) scale(0.4,0.4)">
			<g transform="">
				<rect x="-2089.9" y="-1607.6" class="st1" width="19.6" height="19.6"/>
			</g>
		</g>
		<g transform="translate(360,760) scale(0.4,0.4)">
			<g transform="">
				<rect x="-884.2" y="-1688" class="st1" width="19.6" height="19.6"/>
			</g>
		</g>
		<g transform="translate(520,760) scale(0.4,0.4)">
			<g transform="">
				<rect x="-1205.7" y="-1688" class="st1" width="19.6" height="19.6"/>
			</g>
		</g>
		<g transform="translate(600,760) scale(0.4,0.4)">
			<g transform="">
				<rect x="-1366.5" y="-1688" class="st1" width="19.6" height="19.6"/>
			</g>
		</g>
		<g transform="translate(640,760) scale(0.4,0.4)">
			<g transform="">
				<rect x="-1446.8" y="-1688" class="st1" width="19.6" height="19.6"/>
			</g>
		</g>
		<g transform="translate(800,760) scale(0.4,0.4)">
			<g transform="">
				<rect x="-1768.4" y="-1688" class="st1" width="19.6" height="19.6"/>
			</g>
		</g>
		<g transform="translate(920,760) scale(0.4,0.4)">
			<g transform="">
				<rect x="-2009.5" y="-1688" class="st1" width="19.6" height="19.6"/>
			</g>
		</g>
		<g transform="translate(960,760) scale(0.4,0.4)">
			<g transform="">
				<rect x="-2089.9" y="-1688" class="st1" width="19.6" height="19.6"/>
			</g>
		</g>
		<g transform="translate(360,800) scale(0.4,0.4)">
			<g transform="">
				<rect x="-884.2" y="-1768.4" class="st1" width="19.6" height="19.6"/>
			</g>
		</g>
		<g transform="translate(400,800) scale(0.4,0.4)">
			<g transform="">
				<rect x="-964.6" y="-1768.4" class="st1" width="19.6" height="19.6"/>
			</g>
		</g>
		<g transform="translate(440,800) scale(0.4,0.4)">
			<g transform="">
				<rect x="-1044.9" y="-1768.4" class="st1" width="19.6" height="19.6"/>
			</g>
		</g>
		<g transform="translate(480,800) scale(0.4,0.4)">
			<g transform="">
				<rect x="-1125.3" y="-1768.4" class="st1" width="19.6" height="19.6"/>
			</g>
		</g>
		<g transform="translate(520,800) scale(0.4,0.4)">
			<g transform="">
				<rect x="-1205.7" y="-1768.4" class="st1" width="19.6" height="19.6"/>
			</g>
		</g>
		<g transform="translate(600,800) scale(0.4,0.4)">
			<g transform="">
				<rect x="-1366.5" y="-1768.4" class="st1" width="19.6" height="19.6"/>
			</g>
		</g>
		<g transform="translate(640,800) scale(0.4,0.4)">
			<g transform="">
				<rect x="-1446.8" y="-1768.4" class="st1" width="19.6" height="19.6"/>
			</g>
		</g>
		<g transform="translate(680,800) scale(0.4,0.4)">
			<g transform="">
				<rect x="-1527.2" y="-1768.4" class="st1" width="19.6" height="19.6"/>
			</g>
		</g>
		<g transform="translate(720,800) scale(0.4,0.4)">
			<g transform="">
				<rect x="-1607.6" y="-1768.4" class="st1" width="19.6" height="19.6"/>
			</g>
		</g>
		<g transform="translate(760,800) scale(0.4,0.4)">
			<g transform="">
				<rect x="-1688" y="-1768.4" class="st1" width="19.6" height="19.6"/>
			</g>
		</g>
		<g transform="translate(800,800) scale(0.4,0.4)">
			<g transform="">
				<rect x="-1768.4" y="-1768.4" class="st1" width="19.6" height="19.6"/>
			</g>
		</g>
		<g transform="translate(840,800) scale(0.4,0.4)">
			<g transform="">
				<rect x="-1848.8" y="-1768.4" class="st1" width="19.6" height="19.6"/>
			</g>
		</g>
		<g transform="translate(920,800) scale(0.4,0.4)">
			<g transform="">
				<rect x="-2009.5" y="-1768.4" class="st1" width="19.6" height="19.6"/>
			</g>
		</g>
		<g transform="translate(960,800) scale(0.4,0.4)">
			<g transform="">
				<rect x="-2089.9" y="-1768.4" class="st1" width="19.6" height="19.6"/>
			</g>
		</g>
		<g transform="translate(360,840) scale(0.4,0.4)">
			<g transform="">
				<rect x="-884.2" y="-1848.8" class="st1" width="19.6" height="19.6"/>
			</g>
		</g>
		<g transform="translate(480,840) scale(0.4,0.4)">
			<g transform="">
				<rect x="-1125.3" y="-1848.8" class="st1" width="19.6" height="19.6"/>
			</g>
		</g>
		<g transform="translate(600,840) scale(0.4,0.4)">
			<g transform="">
				<rect x="-1366.5" y="-1848.8" class="st1" width="19.6" height="19.6"/>
			</g>
		</g>
		<g transform="translate(680,840) scale(0.4,0.4)">
			<g transform="">
				<rect x="-1527.2" y="-1848.8" class="st1" width="19.6" height="19.6"/>
			</g>
		</g>
		<g transform="translate(800,840) scale(0.4,0.4)">
			<g transform="">
				<rect x="-1768.4" y="-1848.8" class="st1" width="19.6" height="19.6"/>
			</g>
		</g>
		<g transform="translate(840,840) scale(0.4,0.4)">
			<g transform="">
				<rect x="-1848.8" y="-1848.8" class="st1" width="19.6" height="19.6"/>
			</g>
		</g>
		<g transform="translate(880,840) scale(0.4,0.4)">
			<g transform="">
				<rect x="-1929.1" y="-1848.8" class="st1" width="19.6" height="19.6"/>
			</g>
		</g>
		<g transform="translate(920,840) scale(0.4,0.4)">
			<g transform="">
				<rect x="-2009.5" y="-1848.8" class="st1" width="19.6" height="19.6"/>
			</g>
		</g>
		<g transform="translate(320,880) scale(0.4,0.4)">
			<g transform="">
				<rect x="-803.8" y="-1929.1" class="st1" width="19.6" height="19.6"/>
			</g>
		</g>
		<g transform="translate(360,880) scale(0.4,0.4)">
			<g transform="">
				<rect x="-884.2" y="-1929.1" class="st1" width="19.6" height="19.6"/>
			</g>
		</g>
		<g transform="translate(480,880) scale(0.4,0.4)">
			<g transform="">
				<rect x="-1125.3" y="-1929.1" class="st1" width="19.6" height="19.6"/>
			</g>
		</g>
		<g transform="translate(520,880) scale(0.4,0.4)">
			<g transform="">
				<rect x="-1205.7" y="-1929.1" class="st1" width="19.6" height="19.6"/>
			</g>
		</g>
		<g transform="translate(560,880) scale(0.4,0.4)">
			<g transform="">
				<rect x="-1286.1" y="-1929.1" class="st1" width="19.6" height="19.6"/>
			</g>
		</g>
		<g transform="translate(600,880) scale(0.4,0.4)">
			<g transform="">
				<rect x="-1366.5" y="-1929.1" class="st1" width="19.6" height="19.6"/>
			</g>
		</g>
		<g transform="translate(800,880) scale(0.4,0.4)">
			<g transform="">
				<rect x="-1768.4" y="-1929.1" class="st1" width="19.6" height="19.6"/>
			</g>
		</g>
		<g transform="translate(920,880) scale(0.4,0.4)">
			<g transform="">
				<rect x="-2009.5" y="-1929.1" class="st1" width="19.6" height="19.6"/>
			</g>
		</g>
		<g transform="translate(960,880) scale(0.4,0.4)">
			<g transform="">
				<rect x="-2089.9" y="-1929.1" class="st1" width="19.6" height="19.6"/>
			</g>
		</g>
		<g transform="translate(360,920) scale(0.4,0.4)">
			<g transform="">
				<rect x="-884.2" y="-2009.5" class="st1" width="19.6" height="19.6"/>
			</g>
		</g>
		<g transform="translate(440,920) scale(0.4,0.4)">
			<g transform="">
				<rect x="-1044.9" y="-2009.5" class="st1" width="19.6" height="19.6"/>
			</g>
		</g>
		<g transform="translate(480,920) scale(0.4,0.4)">
			<g transform="">
				<rect x="-1125.3" y="-2009.5" class="st1" width="19.6" height="19.6"/>
			</g>
		</g>
		<g transform="translate(560,920) scale(0.4,0.4)">
			<g transform="">
				<rect x="-1286.1" y="-2009.5" class="st1" width="19.6" height="19.6"/>
			</g>
		</g>
		<g transform="translate(640,920) scale(0.4,0.4)">
			<g transform="">
				<rect x="-1446.8" y="-2009.5" class="st1" width="19.6" height="19.6"/>
			</g>
		</g>
		<g transform="translate(760,920) scale(0.4,0.4)">
			<g transform="">
				<rect x="-1688" y="-2009.5" class="st1" width="19.6" height="19.6"/>
			</g>
		</g>
		<g transform="translate(800,920) scale(0.4,0.4)">
			<g transform="">
				<rect x="-1768.4" y="-2009.5" class="st1" width="19.6" height="19.6"/>
			</g>
		</g>
		<g transform="translate(320,960) scale(0.4,0.4)">
			<g transform="">
				<rect x="-803.8" y="-2089.9" class="st1" width="19.6" height="19.6"/>
			</g>
		</g>
		<g transform="translate(400,960) scale(0.4,0.4)">
			<g transform="">
				<rect x="-964.6" y="-2089.9" class="st1" width="19.6" height="19.6"/>
			</g>
		</g>
		<g transform="translate(520,960) scale(0.4,0.4)">
			<g transform="">
				<rect x="-1205.7" y="-2089.9" class="st1" width="19.6" height="19.6"/>
			</g>
		</g>
		<g transform="translate(560,960) scale(0.4,0.4)">
			<g transform="">
				<rect x="-1286.1" y="-2089.9" class="st1" width="19.6" height="19.6"/>
			</g>
		</g>
		<g transform="translate(640,960) scale(0.4,0.4)">
			<g transform="">
				<rect x="-1446.8" y="-2089.9" class="st1" width="19.6" height="19.6"/>
			</g>
		</g>
		<g transform="translate(840,960) scale(0.4,0.4)">
			<g transform="">
				<rect x="-1848.8" y="-2089.9" class="st1" width="19.6" height="19.6"/>
			</g>
		</g>
		<g transform="translate(960,960) scale(0.4,0.4)">
			<g transform="">
				<rect x="-2089.9" y="-2089.9" class="st1" width="19.6" height="19.6"/>
			</g>
		</g>
		<g transform="translate(0,0) scale(2.8, 2.8)">
			<g transform="">
				<g>
					<rect x="-20" y="-20" class="st2" width="13.7" height="13.7"/>
					<path class="st1" d="M-6.3-23H-20H-23v2.9v13.7v2.9h2.9h13.7h2.9v-2.9V-20V-23H-6.3z M-6.3-6.3H-20V-20h13.7V-6.3z"/>
				</g>
			</g>
		</g>
		<g transform="translate(720,0) scale(2.8, 2.8)">
			<g transform="">
				<g>
					<rect x="-226.7" y="-20" class="st2" width="13.7" height="13.7"/>
					<path class="st1" d="M-213-23h-13.7h-2.9v2.9v13.7v2.9h2.9h13.7h2.9v-2.9V-20V-23H-213z M-213-6.3h-13.7V-20h13.7V-6.3z"/>
				</g>
			</g>
		</g>
		<g transform="translate(0,720) scale(2.8, 2.8)">
			<g transform="">
				<g>
					<rect x="-20" y="-226.7" class="st2" width="13.7" height="13.7"/>
					<path class="st1" d="M-6.3-229.7H-20H-23v2.9v13.7v2.9h2.9h13.7h2.9v-2.9v-13.7v-2.9H-6.3z M-6.3-213H-20v-13.7h13.7V-213z"/>
				</g>
			</g>
		</g>
		<g transform="translate(80,80) scale(1.2, 1.2)">
			<g transform="">
				<rect x="-107.2" y="-107.2" class="st1" width="19.6" height="19.6"/>
			</g>
		</g>
		<g transform="translate(800,80) scale(1.2, 1.2)">
			<g transform="">
				<rect x="-589.5" y="-107.2" class="st1" width="19.6" height="19.6"/>
			</g>
		</g>
		<g transform="translate(80,800) scale(1.2, 1.2)">
			<g transform="">
				<rect x="-107.2" y="-589.5" class="st1" width="19.6" height="19.6"/>
			</g>
		</g>
	</g>
</g>
</svg>
