<?xml version="1.0" encoding="utf-8"?>
<!-- Generator: Adobe Illustrator 16.0.4, SVG Export Plug-In . SVG Version: 6.00 Build 0)  -->
<!DOCTYPE svg PUBLIC "-//W3C//DTD SVG 1.1//EN" "http://www.w3.org/Graphics/SVG/1.1/DTD/svg11.dtd">
<svg version="1.1" id="Layer_1" xmlns="http://www.w3.org/2000/svg" xmlns:xlink="http://www.w3.org/1999/xlink" x="0px" y="0px"
	 width="595.28px" height="257.692px" viewBox="0 0 595.28 257.692" enable-background="new 0 0 595.28 257.692"
	 xml:space="preserve">
<polygon fill="#ABABAB" points="464.247,200.161 131.03,200.161 131.03,186.797 101.695,205.702 131.03,224.607 131.03,209.94 
	464.247,209.94 464.247,223.956 493.585,205.049 464.247,186.145 "/>
<g>
	<g>
		<path fill="#ABABAB" d="M53.738,45.232h10.189c6.012,0,9.884,3.091,9.884,8.356v0.068c0,5.604-4.313,8.559-10.224,8.559h-3.261
			v6.793h-6.589V45.232z M63.452,57.052c2.344,0,3.771-1.223,3.771-3.091v-0.068c0-2.038-1.427-3.125-3.805-3.125h-3.091v6.284
			H63.452z"/>
		<path fill="#ABABAB" d="M76.36,44.213h6.453v24.795H76.36V44.213z"/>
		<path fill="#ABABAB" d="M85.667,59.905v-0.068c0-5.367,3.838-9.612,9.272-9.612c6.352,0,9.272,4.653,9.272,10.054
			c0,0.408,0,0.883-0.033,1.325H91.883c0.51,2.004,1.97,3.023,3.974,3.023c1.528,0,2.752-0.577,4.076-1.868l3.566,2.955
			c-1.767,2.242-4.313,3.736-7.982,3.736C89.743,69.45,85.667,65.612,85.667,59.905z M98.166,58.309
			c-0.237-2.038-1.426-3.329-3.192-3.329c-1.698,0-2.854,1.325-3.192,3.329H98.166z"/>
		<path fill="#ABABAB" d="M106.048,63.744v-0.068c0-3.804,2.887-5.774,7.2-5.774c1.698,0,3.362,0.34,4.416,0.713v-0.306
			c0-1.902-1.189-2.989-3.669-2.989c-1.936,0-3.431,0.374-5.061,1.019l-1.325-4.551c2.072-0.849,4.28-1.427,7.439-1.427
			c3.294,0,5.536,0.781,6.996,2.242c1.394,1.359,1.971,3.261,1.971,5.842v10.563h-6.386v-1.902c-1.257,1.393-2.989,2.31-5.4,2.31
			C108.73,69.416,106.048,67.412,106.048,63.744z M117.731,62.351v-0.849c-0.646-0.272-1.562-0.476-2.514-0.476
			c-1.868,0-2.955,0.917-2.955,2.275v0.068c0,1.256,0.951,2.004,2.276,2.004C116.407,65.374,117.731,64.185,117.731,62.351z"/>
		<path fill="#ABABAB" d="M125.919,66.699l2.411-3.906c2.105,1.393,4.416,2.106,6.317,2.106c1.121,0,1.631-0.34,1.631-0.985v-0.068
			c0-0.713-1.02-1.019-2.955-1.562c-3.635-0.951-6.521-2.174-6.521-5.876v-0.068c0-3.906,3.125-6.08,7.37-6.08
			c2.684,0,5.469,0.781,7.575,2.14l-2.208,4.076c-1.902-1.053-3.975-1.698-5.435-1.698c-0.985,0-1.495,0.374-1.495,0.883v0.068
			c0,0.713,1.054,1.053,2.989,1.63c3.635,1.019,6.521,2.276,6.521,5.842v0.068c0,4.042-3.022,6.148-7.506,6.148
			C131.522,69.416,128.466,68.533,125.919,66.699z"/>
		<path fill="#ABABAB" d="M144.022,59.905v-0.068c0-5.367,3.839-9.612,9.273-9.612c6.352,0,9.272,4.653,9.272,10.054
			c0,0.408,0,0.883-0.034,1.325h-12.296c0.51,2.004,1.971,3.023,3.975,3.023c1.528,0,2.751-0.577,4.076-1.868l3.566,2.955
			c-1.767,2.242-4.314,3.736-7.982,3.736C148.099,69.45,144.022,65.612,144.022,59.905z M156.522,58.309
			c-0.238-2.038-1.427-3.329-3.193-3.329c-1.698,0-2.853,1.325-3.192,3.329H156.522z"/>
		<path fill="#ABABAB" d="M175.103,45.232h19.123v5.604h-12.602v3.601h11.413v5.197h-11.413v3.77h12.771v5.604h-19.293V45.232z"/>
		<path fill="#ABABAB" d="M202.106,59.735l-6.08-9.103h6.964l2.717,4.518l2.718-4.518h6.827l-6.047,9.069l6.183,9.307h-6.93
			l-2.853-4.721l-2.888,4.721h-6.793L202.106,59.735z"/>
		<path fill="#ABABAB" d="M217.393,50.633h6.453v2.445c1.257-1.528,2.819-2.853,5.57-2.853c4.382,0,8.152,3.634,8.152,9.51v0.068
			c0,5.978-3.771,9.612-8.118,9.612c-2.785,0-4.416-1.257-5.604-2.649v7.676h-6.453V50.633z M231.217,59.837V59.77
			c0-2.412-1.665-4.144-3.771-4.144c-2.072,0-3.736,1.732-3.736,4.144v0.068c0,2.446,1.664,4.178,3.736,4.178
			C229.552,64.015,231.217,62.317,231.217,59.837z"/>
		<path fill="#ABABAB" d="M239.438,63.744v-0.068c0-3.804,2.887-5.774,7.2-5.774c1.698,0,3.362,0.34,4.416,0.713v-0.306
			c0-1.902-1.189-2.989-3.669-2.989c-1.936,0-3.431,0.374-5.061,1.019l-1.325-4.551c2.072-0.849,4.28-1.427,7.439-1.427
			c3.294,0,5.536,0.781,6.996,2.242c1.394,1.359,1.971,3.261,1.971,5.842v10.563h-6.386v-1.902c-1.257,1.393-2.989,2.31-5.4,2.31
			C242.12,69.416,239.438,67.412,239.438,63.744z M251.121,62.351v-0.849c-0.646-0.272-1.562-0.476-2.514-0.476
			c-1.868,0-2.955,0.917-2.955,2.275v0.068c0,1.256,0.951,2.004,2.276,2.004C249.797,65.374,251.121,64.185,251.121,62.351z"/>
		<path fill="#ABABAB" d="M260.701,50.633h6.453v2.581c1.188-1.528,2.887-2.989,5.503-2.989c3.905,0,6.249,2.582,6.249,6.759v12.024
			h-6.453v-9.952c0-2.004-1.053-3.091-2.581-3.091c-1.562,0-2.718,1.087-2.718,3.091v9.952h-6.453V50.633z"/>
		<path fill="#ABABAB" d="M281.556,59.905v-0.068c0-5.978,3.736-9.612,8.084-9.612c2.785,0,4.416,1.257,5.639,2.649v-8.662h6.454
			v24.795h-6.454v-2.446c-1.257,1.529-2.854,2.854-5.604,2.854C285.326,69.416,281.556,65.782,281.556,59.905z M295.38,59.837V59.77
			c0-2.412-1.664-4.144-3.735-4.144c-2.072,0-3.771,1.699-3.771,4.144v0.068c0,2.446,1.698,4.178,3.771,4.178
			C293.716,64.015,295.38,62.283,295.38,59.837z"/>
		<path fill="#ABABAB" d="M314.131,72.948l2.004-4.518c1.019,0.612,2.105,0.985,2.819,0.985c0.646,0,1.087-0.17,1.494-0.748
			l-7.2-18.036h6.759l3.668,11.073l3.465-11.073h6.623l-6.725,17.934c-1.597,4.28-3.329,5.978-6.997,5.978
			C317.765,74.545,315.829,73.899,314.131,72.948z"/>
		<path fill="#ABABAB" d="M334.104,59.905v-0.068c0-5.231,4.279-9.612,10.189-9.612c5.876,0,10.122,4.313,10.122,9.544v0.068
			c0,5.231-4.28,9.612-10.19,9.612C338.35,69.45,334.104,65.136,334.104,59.905z M348.132,59.905v-0.068
			c0-2.242-1.63-4.144-3.906-4.144c-2.343,0-3.838,1.868-3.838,4.076v0.068c0,2.242,1.631,4.144,3.906,4.144
			C346.638,63.981,348.132,62.113,348.132,59.905z"/>
		<path fill="#ABABAB" d="M356.998,62.657V50.633h6.453v9.952c0,2.004,1.053,3.091,2.615,3.091c1.528,0,2.684-1.087,2.684-3.091
			v-9.952h6.453v18.375h-6.453v-2.514c-1.188,1.529-2.887,2.921-5.503,2.921C359.342,69.416,356.998,66.834,356.998,62.657z"/>
		<path fill="#ABABAB" d="M378.669,50.633h6.453v3.702c1.053-2.514,2.752-4.144,5.809-4.008v6.793h-0.544
			c-3.362,0-5.265,1.936-5.265,6.182v5.707h-6.453V50.633z"/>
		<path fill="#ABABAB" d="M402.988,45.232h12.194c2.989,0,5.095,0.748,6.487,2.14c0.951,0.951,1.528,2.208,1.528,3.838v0.068
			c0,2.751-1.562,4.382-3.668,5.299c2.887,0.951,4.721,2.582,4.721,5.808v0.068c0,4.076-3.328,6.556-9.001,6.556h-12.262V45.232z
			 M413.552,54.708c2.004,0,3.125-0.679,3.125-2.072v-0.068c0-1.291-1.019-2.038-2.988-2.038h-4.28v4.178H413.552z M414.503,63.709
			c2.004,0,3.159-0.781,3.159-2.174v-0.068c0-1.291-1.019-2.14-3.227-2.14h-5.027v4.381H414.503z"/>
		<path fill="#ABABAB" d="M426.902,50.633h6.453v3.702c1.054-2.514,2.752-4.144,5.809-4.008v6.793h-0.544
			c-3.362,0-5.265,1.936-5.265,6.182v5.707h-6.453V50.633z"/>
		<path fill="#ABABAB" d="M440.354,59.905v-0.068c0-5.231,4.279-9.612,10.189-9.612c5.876,0,10.122,4.313,10.122,9.544v0.068
			c0,5.231-4.28,9.612-10.19,9.612C444.599,69.45,440.354,65.136,440.354,59.905z M454.381,59.905v-0.068
			c0-2.242-1.63-4.144-3.906-4.144c-2.343,0-3.838,1.868-3.838,4.076v0.068c0,2.242,1.631,4.144,3.906,4.144
			C452.887,63.981,454.381,62.113,454.381,59.905z"/>
		<path fill="#ABABAB" d="M461.209,50.633h6.318l2.411,9.239l2.819-9.307h5.333l2.853,9.375l2.479-9.307h6.216l-5.672,18.511h-5.57
			l-2.989-9.544l-3.057,9.544h-5.537L461.209,50.633z"/>
		<path fill="#ABABAB" d="M489.878,66.699l2.411-3.906c2.106,1.393,4.416,2.106,6.318,2.106c1.12,0,1.63-0.34,1.63-0.985v-0.068
			c0-0.713-1.019-1.019-2.955-1.562c-3.634-0.951-6.521-2.174-6.521-5.876v-0.068c0-3.906,3.125-6.08,7.371-6.08
			c2.683,0,5.468,0.781,7.574,2.14l-2.208,4.076c-1.902-1.053-3.974-1.698-5.435-1.698c-0.985,0-1.494,0.374-1.494,0.883v0.068
			c0,0.713,1.053,1.053,2.988,1.63c3.635,1.019,6.521,2.276,6.521,5.842v0.068c0,4.042-3.022,6.148-7.506,6.148
			C495.482,69.416,492.425,68.533,489.878,66.699z"/>
		<path fill="#ABABAB" d="M507.982,59.905v-0.068c0-5.367,3.838-9.612,9.272-9.612c6.352,0,9.272,4.653,9.272,10.054
			c0,0.408,0,0.883-0.034,1.325h-12.295c0.509,2.004,1.97,3.023,3.974,3.023c1.528,0,2.751-0.577,4.076-1.868l3.566,2.955
			c-1.767,2.242-4.313,3.736-7.982,3.736C512.058,69.45,507.982,65.612,507.982,59.905z M520.481,58.309
			c-0.237-2.038-1.427-3.329-3.192-3.329c-1.698,0-2.854,1.325-3.193,3.329H520.481z"/>
		<path fill="#ABABAB" d="M529.28,50.633h6.453v3.702c1.053-2.514,2.752-4.144,5.809-4.008v6.793h-0.544
			c-3.362,0-5.265,1.936-5.265,6.182v5.707h-6.453V50.633z"/>
	</g>
	<g>
		<path fill="#ABABAB" d="M93.87,110.313h-7.133v-5.773h20.855v5.773h-7.133v18.002h-6.59V110.313z"/>
		<path fill="#ABABAB" d="M110.107,103.52h6.453v8.934c1.188-1.529,2.887-2.922,5.503-2.922c3.905,0,6.249,2.582,6.249,6.76v12.023
			h-6.453v-9.951c0-2.004-1.053-3.092-2.581-3.092c-1.562,0-2.718,1.088-2.718,3.092v9.951h-6.453V103.52z"/>
		<path fill="#ABABAB" d="M130.895,119.213v-0.068c0-5.367,3.838-9.613,9.272-9.613c6.352,0,9.272,4.654,9.272,10.055
			c0,0.408,0,0.883-0.033,1.324H137.11c0.51,2.004,1.97,3.023,3.974,3.023c1.528,0,2.752-0.578,4.076-1.869l3.566,2.955
			c-1.767,2.242-4.313,3.736-7.982,3.736C134.971,128.756,130.895,124.918,130.895,119.213z M143.394,117.616
			c-0.237-2.037-1.426-3.328-3.192-3.328c-1.698,0-2.854,1.324-3.192,3.328H143.394z"/>
		<path fill="#ABABAB" d="M161.975,104.54h6.963l5.673,9.205l5.672-9.205h6.963v23.775h-6.555v-13.654l-6.08,9.307h-0.136
			l-6.046-9.238v13.586h-6.454V104.54z"/>
		<path fill="#ABABAB" d="M191.085,103.52h6.725v4.756h-6.725V103.52z M191.221,109.94h6.453v18.375h-6.453V109.94z"/>
		<path fill="#ABABAB" d="M201.274,109.94h6.454v2.582c1.188-1.529,2.887-2.99,5.502-2.99c3.906,0,6.25,2.582,6.25,6.76v12.023
			h-6.454v-9.951c0-2.004-1.053-3.092-2.581-3.092c-1.562,0-2.717,1.088-2.717,3.092v9.951h-6.454V109.94z"/>
		<path fill="#ABABAB" d="M230.995,104.54h6.964l4.144,13.756l4.585-13.824h5.673l4.585,13.824l4.145-13.756h6.827l-7.948,23.945
			h-5.74l-4.789-13.688l-4.756,13.688h-5.74L230.995,104.54z"/>
		<path fill="#ABABAB" d="M269.923,103.52h6.725v4.756h-6.725V103.52z M270.059,109.94h6.453v18.375h-6.453V109.94z"/>
		<path fill="#ABABAB" d="M279.433,119.213v-0.068c0-5.979,3.736-9.613,8.084-9.613c2.785,0,4.416,1.258,5.639,2.65v-8.662h6.453
			v24.795h-6.453v-2.445c-1.257,1.529-2.854,2.854-5.604,2.854C283.203,128.723,279.433,125.088,279.433,119.213z M293.257,119.145
			v-0.068c0-2.412-1.664-4.145-3.735-4.145c-2.072,0-3.771,1.699-3.771,4.145v0.068c0,2.445,1.698,4.178,3.771,4.178
			C291.593,123.323,293.257,121.59,293.257,119.145z"/>
		<path fill="#ABABAB" d="M304.195,122.61v-7.473h-2.174v-5.197h2.174v-4.654h6.453v4.654h4.279v5.197h-4.279v6.215
			c0,1.291,0.577,1.834,1.767,1.834c0.849,0,1.664-0.236,2.445-0.611v5.061c-1.155,0.646-2.684,1.055-4.483,1.055
			C306.505,128.69,304.195,126.991,304.195,122.61z"/>
		<path fill="#ABABAB" d="M317.714,103.52h6.453v8.934c1.189-1.529,2.888-2.922,5.503-2.922c3.906,0,6.25,2.582,6.25,6.76v12.023
			h-6.454v-9.951c0-2.004-1.053-3.092-2.581-3.092c-1.562,0-2.718,1.088-2.718,3.092v9.951h-6.453V103.52z"/>
		<path fill="#ABABAB" d="M348.658,103.52h6.726v4.756h-6.726V103.52z M348.794,109.94h6.453v18.375h-6.453V109.94z"/>
		<path fill="#ABABAB" d="M357.455,126.006l2.411-3.906c2.106,1.393,4.416,2.105,6.318,2.105c1.12,0,1.63-0.34,1.63-0.984v-0.068
			c0-0.713-1.019-1.02-2.955-1.562c-3.634-0.951-6.521-2.174-6.521-5.877v-0.066c0-3.906,3.125-6.08,7.371-6.08
			c2.683,0,5.468,0.781,7.574,2.139l-2.208,4.076c-1.902-1.053-3.974-1.697-5.435-1.697c-0.985,0-1.494,0.373-1.494,0.883v0.068
			c0,0.713,1.053,1.053,2.988,1.629c3.635,1.02,6.521,2.275,6.521,5.842v0.068c0,4.043-3.022,6.148-7.506,6.148
			C363.06,128.723,360.002,127.84,357.455,126.006z"/>
		<path fill="#ABABAB" d="M389.52,110.518l-4.008,0.916l-1.257-5.094l6.963-1.971h4.79v23.945h-6.488V110.518z"/>
		<path fill="#ABABAB" d="M399.71,116.495v-0.066c0-6.727,4.279-12.365,11.039-12.365c6.759,0,10.971,5.57,10.971,12.297v0.068
			c0,6.725-4.245,12.363-11.039,12.363C403.888,128.792,399.71,123.221,399.71,116.495z M415.097,116.495v-0.066
			c0-3.771-1.8-6.521-4.416-6.521c-2.615,0-4.348,2.648-4.348,6.453v0.068c0,3.803,1.767,6.521,4.416,6.521
			S415.097,120.266,415.097,116.495z"/>
		<path fill="#ABABAB" d="M423.896,123.356l8.898-6.793c2.208-1.732,3.058-2.854,3.058-4.279c0-1.494-1.053-2.412-2.649-2.412
			s-2.854,0.918-4.722,3.057l-4.449-3.701c2.547-3.295,5.061-5.096,9.681-5.096c5.196,0,8.763,3.092,8.763,7.574v0.068
			c0,3.805-1.97,5.773-5.502,8.322l-4.076,2.854h9.816v5.365h-18.817V123.356z"/>
		<path fill="#ABABAB" d="M456.503,123.696h-11.515l-1.087-4.652l12.33-14.674h6.657v14.4h3.022v4.926h-3.022v4.619h-6.386V123.696z
			 M456.503,118.805v-6.828l-5.672,6.828H456.503z"/>
		<path fill="#ABABAB" d="M468.597,109.94h6.453v2.445c1.257-1.529,2.819-2.854,5.57-2.854c4.382,0,8.152,3.635,8.152,9.512v0.066
			c0,5.979-3.771,9.613-8.118,9.613c-2.785,0-4.415-1.258-5.604-2.65v7.678h-6.453V109.94z M482.421,119.145v-0.068
			c0-2.412-1.664-4.145-3.771-4.145c-2.072,0-3.736,1.732-3.736,4.145v0.068c0,2.445,1.664,4.178,3.736,4.178
			C480.757,123.323,482.421,121.624,482.421,119.145z"/>
		<path fill="#ABABAB" d="M495.261,119.043l-6.079-9.104h6.963l2.717,4.518l2.718-4.518h6.827l-6.046,9.068l6.182,9.307h-6.929
			l-2.854-4.721l-2.887,4.721h-6.794L495.261,119.043z"/>
	</g>
</g>
</svg>
