<?xml version="1.0" encoding="utf-8"?>
<!-- Generator: Adobe Illustrator 22.0.1, SVG Export Plug-In . SVG Version: 6.00 Build 0)  -->
<svg version="1.1" id="Layer_1" xmlns="http://www.w3.org/2000/svg" xmlns:xlink="http://www.w3.org/1999/xlink" x="0px" y="0px"
	 viewBox="0 0 200 200" style="enable-background:new 0 0 200 200;" xml:space="preserve">
<style type="text/css">
	.st0{fill:#C3D2E0;}
	.st1{fill:#7C91A5;}
</style>
<g>
	<rect class="st0" width="199" height="200"/>
	<path class="st1" d="M164.6,158.9c-4.3-2.1-15.3-4.1-25.5-7.1l0.1-0.1l-5.7-1.7c-1.1-0.4-2.2-0.8-3.2-1.2c-0.1,0-0.2-0.1-0.3-0.1
		c-1.1-0.5-2.2-0.9-3.3-1.4c-0.1,0-0.1-0.1-0.2-0.1c-0.4-0.2-0.8-0.4-1.3-0.6c-0.1-0.1-0.2-0.1-0.3-0.2c-0.4-0.2-0.8-0.5-1.2-0.7
		c-0.1,0-0.1-0.1-0.2-0.1c-0.4-0.3-0.9-0.6-1.3-0.9l0,0c-0.4-0.3-0.7-0.6-1.1-0.8c-0.1-0.1-0.2-0.1-0.2-0.2
		c-0.3-0.2-0.5-0.5-0.7-0.7c-0.1-0.1-0.2-0.2-0.2-0.2c-0.3-0.3-0.5-0.5-0.7-0.8l-0.1-0.1c-0.2-0.3-0.5-0.6-0.7-1
		c0-0.1-0.1-0.2-0.1-0.2c-0.1-0.3-0.3-0.5-0.4-0.8c0-0.1-0.1-0.2-0.1-0.3c-0.1-0.2-0.2-0.5-0.2-0.8c0-0.1-0.1-0.2-0.1-0.3
		c-0.1-0.4-0.1-0.7-0.1-1.1v-6.5c6.5-5.2,11.3-13.2,13.1-22.5c0.1,0,0.2,0,0.4,0c3.1,0,5.8-5.7,6.1-12.6c0.2-4.1-0.6-7.8-1.9-10.1
		c1.6-3.5,3.4-8.6,5-15.7c3.7-16.5-5.3-35.4-5.3-35.4s-5.4,7-30.4,2.2C84.8,33,61.2,33.3,63.1,68c0.3,5.8,1.5,11.1,3,16
		c-2.1,1.8-3.5,6.4-3.2,11.9c0.3,7,3,12.6,6.1,12.6c0.1,0,0.2,0,0.4,0c1.8,9.3,6.6,17.3,13.1,22.5v6.5c0,0.4,0,0.7-0.1,1.1
		c0,0.1,0,0.2-0.1,0.3c-0.1,0.3-0.1,0.5-0.2,0.8c0,0.1-0.1,0.2-0.1,0.3c-0.1,0.3-0.2,0.5-0.4,0.8c0,0.1-0.1,0.2-0.1,0.2
		c-0.2,0.3-0.4,0.7-0.6,1c0,0.1-0.1,0.1-0.1,0.2c-0.2,0.3-0.4,0.5-0.7,0.8c-0.1,0.1-0.2,0.2-0.3,0.3c-0.2,0.2-0.5,0.4-0.7,0.7
		c-0.1,0.1-0.2,0.2-0.3,0.2c-0.3,0.3-0.6,0.5-1,0.8l-0.1,0.1c-0.4,0.3-0.8,0.6-1.2,0.8c-0.1,0.1-0.2,0.1-0.3,0.2
		c-0.3,0.2-0.7,0.4-1.1,0.6c-0.1,0.1-0.2,0.1-0.4,0.2c-0.4,0.2-0.7,0.4-1.1,0.6c-0.1,0.1-0.2,0.1-0.3,0.2c-1,0.5-2.1,0.9-3.2,1.4
		c-0.1,0.1-0.3,0.1-0.4,0.2c-0.2,0.1-0.5,0.2-0.7,0.3l-8,2.6l0,0c-10.2,2.9-21.2,4.9-25.5,7.1c-2.9,1.4-18.8,37.6-20.5,40.7h17h65
		h84C179.3,196.5,167.4,160.3,164.6,158.9z"/>
</g>
</svg>
