<?xml version="1.0" encoding="utf-8"?>
<!-- Generator: Adobe Illustrator 22.0.1, SVG Export Plug-In . SVG Version: 6.00 Build 0)  -->
<svg version="1.1" id="Layer_1" xmlns="http://www.w3.org/2000/svg" xmlns:xlink="http://www.w3.org/1999/xlink" x="0px" y="0px"
	 width="611.8px" height="665.1px" viewBox="0 0 611.8 665.1" style="enable-background:new 0 0 611.8 665.1;" xml:space="preserve"
	>
<style type="text/css">
	.st0{fill:#FFFFFF;}
</style>
<g>
	<g>
		<g>
			<path class="st0" d="M191.3,448.8c-1.1-1.4-2.4-2.4-3.9-3.1s-3.4-1.1-5.7-1.1c-2.5,0-4.5,0.5-6.2,1.6c-1.7,1-3,2.1-3.8,3.3v-12.4
				c0-0.8-0.1-1.4-0.4-1.9c-0.2-0.5-0.6-0.9-1-1.1c-0.4-0.3-0.9-0.5-1.4-0.6s-1.1-0.2-1.7-0.2c-1.7,0-2.9,0.3-3.6,1
				c-0.7,0.6-1.1,1.6-1.1,2.7v39.4c0,1.3,0.4,2.3,1.2,2.8c0.8,0.6,1.9,0.9,3.2,0.9c1.7,0,2.9-0.3,3.6-0.9s1.1-1.6,1.1-2.9v-13.2
				c0-0.7,0-1.6,0-2.6s0.1-1.9,0.4-2.7c0.1-0.5,0.4-1.1,0.7-1.7s0.7-1.2,1.3-1.7s1.3-1,2.1-1.3c0.9-0.4,1.9-0.5,3-0.5
				s2.1,0.2,2.9,0.5c0.8,0.4,1.4,1,1.8,1.9c0.4,0.9,0.6,2.3,0.6,4.2v17.3c0,1.3,0.4,2.3,1.3,2.8c0.9,0.6,1.9,0.8,3.3,0.8
				c1.5,0,2.7-0.3,3.4-0.9c0.7-0.6,1.1-1.5,1.1-2.8V459c0-1.6-0.1-3.4-0.3-5.2C193.1,452,192.4,450.3,191.3,448.8z"/>
			<path class="st0" d="M231.5,449.5c-1.5-1.5-3.4-2.7-5.5-3.6s-4.5-1.3-7.2-1.3c-2.6,0-5,0.4-7.2,1.3s-4,2.1-5.6,3.6
				c-1.6,1.6-2.8,3.5-3.6,5.7c-0.9,2.2-1.3,4.7-1.3,7.4c0,2.7,0.4,5.2,1.2,7.5c0.8,2.2,2,4.2,3.5,5.7c1.5,1.6,3.4,2.8,5.5,3.7
				c2.2,0.9,4.6,1.3,7.4,1.3c2.6,0,5-0.4,7.2-1.3c2.2-0.9,4-2.1,5.5-3.7c1.5-1.6,2.7-3.5,3.6-5.7c0.8-2.2,1.3-4.8,1.3-7.5
				s-0.4-5.1-1.3-7.4C234.3,452.9,233.1,451,231.5,449.5z M225,470.4c-1.5,1.8-3.5,2.7-6.2,2.7c-2.6,0-4.6-0.9-6-2.7
				c-1.5-1.8-2.2-4.4-2.2-7.7c0-3.3,0.7-5.9,2.2-7.7c1.5-1.8,3.5-2.7,6-2.7c2.7,0,4.8,0.9,6.2,2.8c1.5,1.8,2.2,4.4,2.2,7.7
				C227.2,466.1,226.4,468.6,225,470.4z"/>
			<path class="st0" d="M272.4,449.5c-1.5-1.5-3.4-2.7-5.5-3.6s-4.5-1.3-7.2-1.3c-2.6,0-5,0.4-7.2,1.3s-4,2.1-5.6,3.6
				c-1.6,1.6-2.8,3.5-3.6,5.7c-0.9,2.2-1.3,4.7-1.3,7.4c0,2.7,0.4,5.2,1.2,7.5c0.8,2.2,2,4.2,3.5,5.7c1.5,1.6,3.4,2.8,5.5,3.7
				c2.2,0.9,4.6,1.3,7.4,1.3c2.6,0,5-0.4,7.2-1.3c2.2-0.9,4-2.1,5.5-3.7c1.5-1.6,2.7-3.5,3.6-5.7c0.8-2.2,1.3-4.8,1.3-7.5
				s-0.4-5.1-1.3-7.4C275.1,452.9,274,451,272.4,449.5z M265.8,470.4c-1.5,1.8-3.5,2.7-6.2,2.7c-2.6,0-4.6-0.9-6-2.7
				c-1.5-1.8-2.2-4.4-2.2-7.7c0-3.3,0.7-5.9,2.2-7.7c1.5-1.8,3.5-2.7,6-2.7c2.7,0,4.8,0.9,6.2,2.8c1.5,1.8,2.2,4.4,2.2,7.7
				C268.1,466.1,267.3,468.6,265.8,470.4z"/>
			<path class="st0" d="M312.1,433.4c-1.2,0-2.2,0.2-3.2,0.7c-0.9,0.5-1.4,1.4-1.4,2.8v12.8c-0.3-0.6-0.7-1.2-1.3-1.8
				c-0.5-0.6-1.2-1.2-1.9-1.7c-0.8-0.5-1.7-0.9-2.7-1.2c-1-0.3-2.2-0.5-3.5-0.5c-2.4,0-4.5,0.5-6.4,1.4s-3.5,2.2-4.8,3.8
				c-1.3,1.6-2.3,3.5-2.9,5.7c-0.7,2.2-1,4.6-1,7.2s0.3,5.1,1,7.3c0.7,2.2,1.6,4.1,2.9,5.7c1.3,1.6,2.8,2.9,4.7,3.8
				c1.9,0.9,4,1.4,6.4,1.4c1.8,0,3.3-0.2,4.5-0.7s2.2-1,3-1.6c0.9-0.7,1.7-1.4,2.2-2.3v0.3c0,1.3,0.4,2.2,1.1,2.8s1.9,0.9,3.5,0.9
				c2.9,0,4.4-1.2,4.4-3.6v-39.4c0-1.1-0.4-2-1.1-2.7S313.7,433.4,312.1,433.4z M305.9,470.4c-1.3,1.9-3.2,2.8-5.7,2.8
				c-2.6,0-4.5-1-5.8-3s-1.9-4.5-1.9-7.5c0-1.5,0.2-2.9,0.5-4.2c0.3-1.3,0.8-2.4,1.5-3.3s1.5-1.7,2.5-2.2s2.1-0.8,3.4-0.8
				c1.2,0,2.3,0.3,3.3,0.8s1.8,1.3,2.4,2.2c0.6,0.9,1.1,2.1,1.4,3.3c0.3,1.3,0.5,2.7,0.5,4.2C307.9,466,307.2,468.5,305.9,470.4z"/>
			<path class="st0" d="M341.4,458.9l-3.5-0.7c-2-0.4-3.3-0.8-3.9-1.4s-0.9-1.3-0.9-2.1c0-0.9,0.4-1.6,1.2-2.2
				c0.8-0.6,2.1-0.9,3.8-0.9c1.8,0,3.2,0.2,4.3,0.7c1.1,0.4,2.2,1,3.4,1.7c0.4,0.2,0.8,0.4,1.3,0.6s1,0.3,1.5,0.3
				c0.6,0,1-0.1,1.4-0.4c0.4-0.2,0.7-0.6,1.1-1c0.6-0.7,0.9-1.7,0.9-2.7c0-0.5-0.1-1-0.3-1.5c-0.2-0.5-0.6-1-1.2-1.5
				c-0.9-0.7-2.4-1.5-4.3-2.2s-4.4-1.1-7.5-1.1c-2.1,0-4.1,0.2-5.8,0.7c-1.8,0.5-3.3,1.2-4.6,2.1c-1.3,0.9-2.3,2.1-3,3.5
				s-1.1,2.9-1.1,4.7c0,1.7,0.3,3.1,0.8,4.3c0.5,1.2,1.3,2.2,2.2,3c1,0.8,2.1,1.5,3.5,2c1.3,0.5,2.8,0.9,4.5,1.2l4,0.7
				c1.8,0.3,3.1,0.8,3.7,1.5s0.9,1.4,0.9,2.2c0,1.1-0.4,1.9-1.3,2.5c-0.8,0.6-2.2,0.9-4.1,0.9c-1.5,0-2.8-0.2-3.8-0.6
				c-1-0.4-1.9-0.8-2.7-1.3c-0.8-0.5-1.5-0.9-2.1-1.3s-1.3-0.6-1.9-0.6c-0.7,0-1.4,0.2-1.9,0.7c-0.6,0.4-1,1-1.4,1.7
				c-0.4,0.8-0.7,1.6-0.7,2.5c0,0.5,0.1,1,0.4,1.5s0.7,1,1.3,1.4c1.3,0.9,3,1.7,5.1,2.3s4.5,0.9,7.1,0.9c4.6,0,8.3-0.9,11-2.8
				s4-4.6,4-8.3c0-3.2-0.9-5.6-2.7-7.3C348.3,460.8,345.4,459.6,341.4,458.9z"/>
			<path class="st0" d="M368.7,433c-1.1-0.8-2.3-1.2-3.5-1.2c-1.5,0-2.8,0.5-3.7,1.4c-0.9,0.9-1.4,2.1-1.4,3.5
				c0,1.5,0.5,2.7,1.4,3.6s2.2,1.3,3.7,1.3s2.8-0.4,3.7-1.3c0.9-0.9,1.4-2.1,1.4-3.6C370.3,435,369.8,433.8,368.7,433z"/>
			<path class="st0" d="M365.2,445.3c-1.7,0-2.9,0.4-3.6,1.1s-1.1,1.8-1.1,3v27.1c0,2.4,1.6,3.6,4.7,3.6c1.4,0,2.5-0.3,3.3-0.9
				c0.8-0.6,1.2-1.5,1.2-2.8V449c0-1.3-0.4-2.2-1.2-2.8C367.7,445.6,366.6,445.3,365.2,445.3z"/>
			<path class="st0" d="M406,445.1c-1.1,0-2.1,0.2-3,0.6c-0.8,0.4-1.3,1.2-1.3,2.3v1.4c-0.4-0.5-0.8-1-1.4-1.6
				c-0.6-0.5-1.2-1.1-2-1.5c-0.8-0.5-1.7-0.8-2.7-1.2c-1-0.3-2.2-0.5-3.6-0.5c-2.2,0-4.3,0.4-6.1,1.3c-1.8,0.8-3.4,2-4.7,3.5
				s-2.3,3.4-3,5.5c-0.7,2.2-1.1,4.6-1.1,7.3c0,2.6,0.3,5,1,7.2c0.7,2.1,1.7,4,2.9,5.4c1.3,1.5,2.8,2.7,4.6,3.5
				c1.8,0.8,3.8,1.2,6.1,1.2c2.4,0,4.5-0.5,6.1-1.4s2.9-2,3.8-3.1v3.8c0,2.7-0.7,4.7-2.1,6.1c-1.4,1.4-3.3,2-5.7,2
				c-1.5,0-2.7-0.1-3.6-0.4c-0.9-0.3-1.7-0.6-2.4-1s-1.3-0.7-1.8-1s-1.1-0.4-1.8-0.4c-1.2,0-2.2,0.5-2.8,1.4c-0.7,0.9-1,2-1,3.1
				c0,1.3,0.5,2.3,1.5,3c0.9,0.7,2.3,1.3,4.2,1.8c1.8,0.5,4.4,0.8,7.6,0.8c2.7,0,5.1-0.3,7.2-1c2.1-0.6,3.9-1.6,5.3-3
				s2.5-3.1,3.3-5.2s1.1-4.6,1.1-7.6v-28.5c0-1.1-0.4-2.1-1.1-2.9S407.6,445.1,406,445.1z M400,469.5c-1.3,1.7-3.3,2.5-5.9,2.5
				c-2.3,0-4.1-0.9-5.4-2.6s-1.9-4.1-1.9-7.1c0-2.9,0.6-5.3,1.9-7.2c1.3-1.8,3.1-2.7,5.5-2.7c2.6,0,4.6,0.9,5.9,2.8s1.9,4.2,1.9,7.2
				C402,465.4,401.3,467.8,400,469.5z"/>
			<path class="st0" d="M448.4,448.8c-1.1-1.4-2.4-2.4-3.9-3.1s-3.4-1.1-5.7-1.1c-2.4,0-4.4,0.5-6.2,1.6c-1.7,1-3.1,2.2-4,3.6V449
				c0-1.5-0.4-2.6-1.3-3.1s-1.9-0.8-3-0.8c-1.7,0-2.9,0.4-3.5,1.1s-1,1.7-1,2.9v27.3c0,1.3,0.4,2.3,1.2,2.8c0.8,0.6,1.9,0.9,3.2,0.9
				c1.7,0,2.9-0.3,3.6-0.9s1.1-1.6,1.1-2.9v-13c0-0.7,0-1.6,0-2.6s0.1-1.9,0.4-2.7c0.1-0.5,0.4-1.1,0.7-1.7c0.3-0.6,0.7-1.2,1.3-1.8
				c0.6-0.6,1.3-1,2.1-1.4s1.8-0.6,3-0.6c1.1,0,2.1,0.2,2.9,0.5c0.8,0.4,1.4,1,1.8,1.9s0.6,2.3,0.6,4.2v17.3c0,1.3,0.4,2.3,1.3,2.8
				c0.9,0.6,1.9,0.8,3.3,0.8c1.5,0,2.7-0.3,3.4-0.9c0.7-0.6,1.1-1.5,1.1-2.8V459c0-1.6-0.1-3.4-0.3-5.2
				C450.2,452,449.5,450.3,448.4,448.8z"/>
			<path class="st0" d="M450.6,270c0-18-4.2-34.8-11.7-49.6l-12.4,5.2c6.4,12.9,10.1,27.5,10.1,42.8c0,21.4-7.1,40.7-18.7,56
				l-4.1,4.8v-4.1v-45.3l-40.2-11.7v74.1h-16.1v-60.9l-25.4-8.2l0,0l-28.8,11.1v37.9h-9.4v-71.6l-15-39.5l-19.2,41v58.7h-13.4V233
				h-20v99.7h-14.7v-44.9h-33.5V327c-13.4-15.6-20.9-36.1-20.9-58.7c0-49.6,38.2-91.5,85.1-91.5h82.3l-5.3-12.6
				c-0.2-0.5-0.3-1-0.5-1.4h-67.7C191.2,162.8,142,210.1,142,270v0.2c0,6.7,0.8,13.3,2,19.7c5.4,31.7,24.9,58.6,51.8,74.1
				c25.5,25.9,62.3,47.2,72,47.2c10.2,0,8.7-19.4,6.6-30.8h61.3c2.7,0,5.4-0.7,8-0.7h0.5c59.9,0,106.4-49.6,106.4-109.5V270z"/>
		</g>
		<g>
			<path class="st0" d="M347,203.7v-0.3c0-2.6,0.9-4.8,2.7-6.8l34.4-40h-29.5c-3.5,0-6.4-2.8-6.4-6.3s2.9-6.4,6.4-6.4h42.3
				c3.5,0,6.4,2.9,6.4,6.4v0.3c0,2.6-0.9,4.7-2.7,6.8l-34.4,40h30.6c3.5,0,6.4,2.9,6.4,6.4s-2.9,6.3-6.4,6.3h-43.5
				C349.9,210.2,347,207.2,347,203.7z"/>
			<path class="st0" d="M413.1,166.3V166c-0.2-3,0.7-5.8,2.5-8.3l37-50.5l-34.9,2.7c-4.1,0.3-7.9-2.8-8.2-6.9
				c-0.3-4.1,2.9-7.9,7-8.2l50.1-3.9c4.1-0.3,7.9,2.9,8.2,7v0.3c0.2,3-0.7,5.7-2.5,8.3l-37,50.5l36.2-2.8c4.1-0.3,7.9,2.9,8.2,7
				c0.3,4.1-2.9,7.8-7,8.1l-51.5,4C417.2,173.6,413.4,170.4,413.1,166.3z"/>
			<path class="st0" d="M497.3,179v-0.2c0-1.5,0.6-2.8,1.6-4l20.2-23.5h-17.3c-2.1,0-3.8-1.7-3.8-3.7s1.7-3.8,3.8-3.8h24.8
				c2.1,0,3.8,1.7,3.8,3.8v0.2c0,1.5-0.6,2.8-1.6,4l-20.2,23.5h18c2.1,0,3.8,1.7,3.8,3.8s-1.7,3.7-3.8,3.7h-25.5
				C499,182.8,497.3,181.1,497.3,179z"/>
		</g>
	</g>
	<g>
		<path class="st0" d="M81.6,562.5c-7.9,0-13.6-6.2-13.6-14c0-7.8,5.8-14.1,13.8-14.1c4.9,0,7.9,1.7,10.6,4.3l-2.1,2.3
			c-2.3-2.2-4.9-3.7-8.6-3.7c-6,0-10.5,4.9-10.5,11.2s4.5,11.3,10.5,11.3c3.7,0,6.2-1.4,8.8-3.9l2,2
			C89.6,560.6,86.5,562.5,81.6,562.5z"/>
		<path class="st0" d="M106.1,562.5c-6,0-10.4-4.7-10.4-10.5s4.4-10.5,10.5-10.5c6,0,10.5,4.7,10.5,10.5
			C116.6,557.7,112.2,562.5,106.1,562.5z M106.1,544.2c-4.4,0-7.3,3.5-7.3,7.8c0,4.4,3.2,7.9,7.4,7.9c4.4,0,7.4-3.5,7.4-7.8
			C113.6,547.7,110.3,544.2,106.1,544.2z"/>
		<path class="st0" d="M125,562h-3V542h3v3.5c1.3-2.2,3.4-3.9,6.9-3.9c4.9,0,7.7,3.3,7.7,8V562h-3v-11.7c0-3.7-2-6.1-5.6-6.1
			c-3.5,0-6,2.5-6,6.3V562z"/>
		<path class="st0" d="M149,562h-3V542h3v3.5c1.3-2.2,3.4-3.9,6.9-3.9c4.9,0,7.7,3.3,7.7,8V562h-3v-11.7c0-3.7-2-6.1-5.6-6.1
			c-3.5,0-6,2.5-6,6.3V562z"/>
		<path class="st0" d="M178.8,559.9c2.8,0,4.7-1.1,6.3-2.8l1.9,1.7c-2,2.3-4.5,3.8-8.3,3.8c-5.5,0-10-4.2-10-10.5
			c0-5.8,4.1-10.5,9.6-10.5c5.9,0,9.4,4.7,9.4,10.6c0,0.3,0,0.6,0,0.9h-15.9C172.1,557.5,175.2,559.9,178.8,559.9z M184.6,550.9
			c-0.3-3.7-2.4-6.8-6.4-6.8c-3.5,0-6.1,2.9-6.5,6.8H184.6z"/>
		<path class="st0" d="M202,562.5c-5.9,0-10.3-4.8-10.3-10.5c0-5.7,4.4-10.5,10.3-10.5c3.8,0,6.2,1.6,8,3.6l-2,2.1
			c-1.6-1.7-3.4-3-6.1-3c-4.1,0-7.2,3.5-7.2,7.8c0,4.4,3.2,7.9,7.4,7.9c2.6,0,4.5-1.3,6.1-3l1.9,1.8
			C208.1,560.9,205.7,562.5,202,562.5z"/>
		<path class="st0" d="M219.1,556.3c0,2.4,1.4,3.3,3.4,3.3c1,0,1.9-0.2,2.9-0.7v2.6c-1,0.5-2.2,0.9-3.6,0.9c-3.2,0-5.7-1.6-5.7-5.7
			v-12.1h-2.8V542h2.8v-6.1h3v6.1h6.4v2.6h-6.4V556.3z"/>
		<path class="st0" d="M230.9,537.6v-3.3h3.4v3.3H230.9z M231.1,562V542h3V562H231.1z"/>
		<path class="st0" d="M244,562h-3V542h3v3.5c1.3-2.2,3.4-3.9,6.9-3.9c4.9,0,7.7,3.3,7.7,8V562h-3v-11.7c0-3.7-2-6.1-5.6-6.1
			c-3.5,0-6,2.5-6,6.3V562z"/>
		<path class="st0" d="M273.9,568.3c-3.3,0-6.5-0.9-9.1-2.8l1.4-2.3c2.3,1.7,4.9,2.6,7.7,2.6c4.4,0,7.3-2.4,7.3-7.2v-2.4
			c-1.7,2.3-4.2,4.2-7.9,4.2c-4.8,0-9.4-3.6-9.4-9.4c0-5.9,4.7-9.5,9.4-9.5c3.8,0,6.2,1.9,7.9,4V542h3v16.6
			C284.1,565,280,568.3,273.9,568.3z M273.8,544.2c-3.8,0-7,2.6-7,6.8c0,4.1,3.2,6.9,7,6.9c3.8,0,7.4-2.7,7.4-6.8
			C281.2,546.8,277.6,544.2,273.8,544.2z"/>
		<path class="st0" d="M311.5,562.5c-5.9,0-10.3-4.8-10.3-10.5c0-5.7,4.4-10.5,10.3-10.5c3.8,0,6.2,1.6,8,3.6l-2,2.1
			c-1.6-1.7-3.4-3-6.1-3c-4.1,0-7.2,3.5-7.2,7.8c0,4.4,3.2,7.9,7.4,7.9c2.6,0,4.5-1.3,6.1-3l1.9,1.8
			C317.7,560.9,315.2,562.5,311.5,562.5z"/>
		<path class="st0" d="M333.2,562.5c-6,0-10.4-4.7-10.4-10.5s4.4-10.5,10.5-10.5c6,0,10.5,4.7,10.5,10.5
			C343.7,557.7,339.3,562.5,333.2,562.5z M333.2,544.2c-4.4,0-7.3,3.5-7.3,7.8c0,4.4,3.2,7.9,7.4,7.9c4.4,0,7.4-3.5,7.4-7.8
			C340.7,547.7,337.4,544.2,333.2,544.2z"/>
		<path class="st0" d="M372.1,541.5c4.6,0,7.5,3.1,7.5,8.1V562h-3v-11.7c0-3.9-1.9-6.1-5.2-6.1c-3,0-5.6,2.3-5.6,6.2V562h-3v-11.8
			c0-3.8-2-6-5.2-6c-3.2,0-5.6,2.6-5.6,6.3V562h-3V542h3v3.4c1.3-2,3.1-3.8,6.5-3.8c3.3,0,5.4,1.7,6.5,4
			C366.5,543.3,368.6,541.5,372.1,541.5z"/>
		<path class="st0" d="M409.1,541.5c4.6,0,7.5,3.1,7.5,8.1V562h-3v-11.7c0-3.9-1.9-6.1-5.2-6.1c-3,0-5.6,2.3-5.6,6.2V562h-3v-11.8
			c0-3.8-2-6-5.2-6c-3.2,0-5.6,2.6-5.6,6.3V562h-3V542h3v3.4c1.3-2,3.1-3.8,6.5-3.8c3.3,0,5.4,1.7,6.5,4
			C403.5,543.3,405.6,541.5,409.1,541.5z"/>
		<path class="st0" d="M437.3,542h3V562h-3v-3.5c-1.4,2.2-3.4,3.9-6.9,3.9c-4.9,0-7.7-3.3-7.7-8V542h3v11.7c0,3.7,2,6.1,5.6,6.1
			c3.4,0,6-2.5,6-6.3V542z"/>
		<path class="st0" d="M450,562h-3V542h3v3.5c1.3-2.2,3.4-3.9,6.9-3.9c4.9,0,7.7,3.3,7.7,8V562h-3v-11.7c0-3.7-2-6.1-5.6-6.1
			c-3.5,0-6,2.5-6,6.3V562z"/>
		<path class="st0" d="M471,537.6v-3.3h3.4v3.3H471z M471.2,562V542h3V562H471.2z"/>
		<path class="st0" d="M485.2,556.3c0,2.4,1.4,3.3,3.4,3.3c1,0,1.9-0.2,2.9-0.7v2.6c-1,0.5-2.2,0.9-3.6,0.9c-3.2,0-5.7-1.6-5.7-5.7
			v-12.1h-2.8V542h2.8v-6.1h3v6.1h6.4v2.6h-6.4V556.3z"/>
		<path class="st0" d="M496.9,537.6v-3.3h3.4v3.3H496.9z M497.1,562V542h3V562H497.1z"/>
		<path class="st0" d="M515.9,559.9c2.8,0,4.7-1.1,6.3-2.8l1.9,1.7c-2,2.3-4.5,3.8-8.3,3.8c-5.5,0-10-4.2-10-10.5
			c0-5.8,4.1-10.5,9.6-10.5c5.9,0,9.4,4.7,9.4,10.6c0,0.3,0,0.6,0,0.9h-15.9C509.3,557.5,512.4,559.9,515.9,559.9z M521.8,550.9
			c-0.3-3.7-2.4-6.8-6.4-6.8c-3.5,0-6.1,2.9-6.5,6.8H521.8z"/>
		<path class="st0" d="M536.7,562.4c-2.9,0-6.1-1.1-8.3-3l1.5-2.1c2.2,1.6,4.6,2.6,7,2.6c2.4,0,4.2-1.2,4.2-3.2v-0.1
			c0-2-2.4-2.8-5-3.5c-3.1-0.9-6.6-2-6.6-5.7v-0.1c0-3.5,2.9-5.8,6.8-5.8c2.4,0,5.2,0.9,7.2,2.2l-1.4,2.3c-1.9-1.2-4-1.9-5.9-1.9
			c-2.4,0-3.9,1.2-3.9,2.9v0.1c0,1.9,2.5,2.6,5.2,3.5c3.1,0.9,6.5,2.1,6.5,5.8v0.1C543.9,560.2,540.7,562.4,536.7,562.4z"/>
	</g>
</g>
</svg>
